<svg width="180" height="61" viewBox="0 0 180 61" fill="none" xmlns="http://www.w3.org/2000/svg">
<g filter="url(#filter0_d)">
<rect x="7" y="5" width="165.5" height="32" rx="16" fill="#CEC090"/>
<circle cx="23" cy="21" r="16" fill="white" fill-opacity="0.15"/>
<path d="M19.7727 18.9545V17.4091H20.5455V14.3182H19.7727V13.5455L22.8636 12L25.9545 13.5455V14.3182H25.1818V17.4091H25.9545V18.9545H24.9809L20.1127 21.7673L20.5455 18.9545H19.7727ZM23.6364 17.4091V14.3182H22.0909V17.4091H23.6364ZM19 29L19.0309 28.8145L26.0705 24.75L26.4723 27.3618L23.6364 29H19ZM19.8114 23.7223L25.4214 20.5L25.8232 23.1041L19.3323 26.8518L19.8114 23.7223Z" fill="black" fill-opacity="0.8"/>
<path d="M60.5068 24.1602H55.1455L53.9414 27.5H52.2012L57.0879 14.7031H58.5645L63.46 27.5H61.7285L60.5068 24.1602ZM55.6553 22.7715H60.0059L57.8262 16.7861L55.6553 22.7715ZM72.9609 22.8506C72.9609 24.2979 72.6299 25.4639 71.9678 26.3486C71.3057 27.2334 70.4092 27.6758 69.2783 27.6758C68.124 27.6758 67.2158 27.3096 66.5537 26.5771V31.1562H64.9277V17.9902H66.4131L66.4922 19.0449C67.1543 18.2246 68.0742 17.8145 69.252 17.8145C70.3945 17.8145 71.2969 18.2451 71.959 19.1064C72.627 19.9678 72.9609 21.166 72.9609 22.7012V22.8506ZM71.335 22.666C71.335 21.5938 71.1064 20.7471 70.6494 20.126C70.1924 19.5049 69.5654 19.1943 68.7686 19.1943C67.7842 19.1943 67.0459 19.6309 66.5537 20.5039V25.0479C67.04 25.915 67.7842 26.3486 68.7861 26.3486C69.5654 26.3486 70.1836 26.041 70.6406 25.4258C71.1035 24.8047 71.335 23.8848 71.335 22.666ZM76.8018 27.5H75.1758V17.9902H76.8018V27.5ZM75.0439 15.4678C75.0439 15.2041 75.123 14.9814 75.2812 14.7998C75.4453 14.6182 75.6855 14.5273 76.002 14.5273C76.3184 14.5273 76.5586 14.6182 76.7227 14.7998C76.8867 14.9814 76.9688 15.2041 76.9688 15.4678C76.9688 15.7314 76.8867 15.9512 76.7227 16.127C76.5586 16.3027 76.3184 16.3906 76.002 16.3906C75.6855 16.3906 75.4453 16.3027 75.2812 16.127C75.123 15.9512 75.0439 15.7314 75.0439 15.4678ZM80.9502 17.9902L81.0029 19.1855C81.7295 18.2715 82.6787 17.8145 83.8506 17.8145C85.8604 17.8145 86.874 18.9482 86.8916 21.2158V27.5H85.2656V21.207C85.2598 20.5215 85.1016 20.0146 84.791 19.6865C84.4863 19.3584 84.0088 19.1943 83.3584 19.1943C82.8311 19.1943 82.3682 19.335 81.9697 19.6162C81.5713 19.8975 81.2607 20.2666 81.0381 20.7236V27.5H79.4121V17.9902H80.9502ZM95.2148 27.5C95.1211 27.3125 95.0449 26.9785 94.9863 26.498C94.2305 27.2832 93.3281 27.6758 92.2793 27.6758C91.3418 27.6758 90.5713 27.4121 89.9678 26.8848C89.3701 26.3516 89.0713 25.6777 89.0713 24.8633C89.0713 23.873 89.4463 23.1055 90.1963 22.5605C90.9521 22.0098 92.0127 21.7344 93.3779 21.7344H94.96V20.9873C94.96 20.4189 94.79 19.9678 94.4502 19.6338C94.1104 19.2939 93.6094 19.124 92.9473 19.124C92.3672 19.124 91.8809 19.2705 91.4883 19.5635C91.0957 19.8564 90.8994 20.2109 90.8994 20.627H89.2646C89.2646 20.1523 89.4316 19.6953 89.7656 19.2559C90.1055 18.8105 90.5625 18.459 91.1367 18.2012C91.7168 17.9434 92.3525 17.8145 93.0439 17.8145C94.1396 17.8145 94.998 18.0898 95.6191 18.6406C96.2402 19.1855 96.5625 19.9385 96.5859 20.8994V25.2764C96.5859 26.1494 96.6973 26.8438 96.9199 27.3594V27.5H95.2148ZM92.5166 26.2607C93.0264 26.2607 93.5098 26.1289 93.9668 25.8652C94.4238 25.6016 94.7549 25.2588 94.96 24.8369V22.8857H93.6855C91.6934 22.8857 90.6973 23.4688 90.6973 24.6348C90.6973 25.1445 90.8672 25.543 91.207 25.8301C91.5469 26.1172 91.9834 26.2607 92.5166 26.2607ZM107.168 22.8506C107.168 24.2979 106.837 25.4639 106.175 26.3486C105.513 27.2334 104.616 27.6758 103.485 27.6758C102.331 27.6758 101.423 27.3096 100.761 26.5771V31.1562H99.1348V17.9902H100.62L100.699 19.0449C101.361 18.2246 102.281 17.8145 103.459 17.8145C104.602 17.8145 105.504 18.2451 106.166 19.1064C106.834 19.9678 107.168 21.166 107.168 22.7012V22.8506ZM105.542 22.666C105.542 21.5938 105.313 20.7471 104.856 20.126C104.399 19.5049 103.772 19.1943 102.976 19.1943C101.991 19.1943 101.253 19.6309 100.761 20.5039V25.0479C101.247 25.915 101.991 26.3486 102.993 26.3486C103.772 26.3486 104.391 26.041 104.848 25.4258C105.311 24.8047 105.542 23.8848 105.542 22.666ZM115.113 27.5C115.02 27.3125 114.943 26.9785 114.885 26.498C114.129 27.2832 113.227 27.6758 112.178 27.6758C111.24 27.6758 110.47 27.4121 109.866 26.8848C109.269 26.3516 108.97 25.6777 108.97 24.8633C108.97 23.873 109.345 23.1055 110.095 22.5605C110.851 22.0098 111.911 21.7344 113.276 21.7344H114.858V20.9873C114.858 20.4189 114.688 19.9678 114.349 19.6338C114.009 19.2939 113.508 19.124 112.846 19.124C112.266 19.124 111.779 19.2705 111.387 19.5635C110.994 19.8564 110.798 20.2109 110.798 20.627H109.163C109.163 20.1523 109.33 19.6953 109.664 19.2559C110.004 18.8105 110.461 18.459 111.035 18.2012C111.615 17.9434 112.251 17.8145 112.942 17.8145C114.038 17.8145 114.896 18.0898 115.518 18.6406C116.139 19.1855 116.461 19.9385 116.484 20.8994V25.2764C116.484 26.1494 116.596 26.8438 116.818 27.3594V27.5H115.113ZM112.415 26.2607C112.925 26.2607 113.408 26.1289 113.865 25.8652C114.322 25.6016 114.653 25.2588 114.858 24.8369V22.8857H113.584C111.592 22.8857 110.596 23.4688 110.596 24.6348C110.596 25.1445 110.766 25.543 111.105 25.8301C111.445 26.1172 111.882 26.2607 112.415 26.2607ZM121.239 15.6875V17.9902H123.015V19.2471H121.239V25.1445C121.239 25.5254 121.318 25.8125 121.477 26.0059C121.635 26.1934 121.904 26.2871 122.285 26.2871C122.473 26.2871 122.73 26.252 123.059 26.1816V27.5C122.631 27.6172 122.215 27.6758 121.811 27.6758C121.084 27.6758 120.536 27.4561 120.167 27.0166C119.798 26.5771 119.613 25.9531 119.613 25.1445V19.2471H117.882V17.9902H119.613V15.6875H121.239ZM130.459 24.9775C130.459 24.5381 130.292 24.1982 129.958 23.958C129.63 23.7119 129.053 23.501 128.227 23.3252C127.406 23.1494 126.753 22.9385 126.267 22.6924C125.786 22.4463 125.429 22.1533 125.194 21.8135C124.966 21.4736 124.852 21.0693 124.852 20.6006C124.852 19.8213 125.18 19.1621 125.836 18.623C126.498 18.084 127.342 17.8145 128.367 17.8145C129.445 17.8145 130.318 18.0928 130.986 18.6494C131.66 19.2061 131.997 19.918 131.997 20.7852H130.362C130.362 20.3398 130.172 19.9561 129.791 19.6338C129.416 19.3115 128.941 19.1504 128.367 19.1504C127.775 19.1504 127.312 19.2793 126.979 19.5371C126.645 19.7949 126.478 20.1318 126.478 20.5479C126.478 20.9404 126.633 21.2363 126.943 21.4355C127.254 21.6348 127.813 21.8252 128.622 22.0068C129.437 22.1885 130.096 22.4053 130.6 22.6572C131.104 22.9092 131.476 23.2139 131.716 23.5713C131.962 23.9229 132.085 24.3535 132.085 24.8633C132.085 25.7129 131.745 26.3955 131.065 26.9111C130.386 27.4209 129.504 27.6758 128.42 27.6758C127.658 27.6758 126.984 27.541 126.398 27.2715C125.812 27.002 125.353 26.627 125.019 26.1465C124.69 25.6602 124.526 25.1357 124.526 24.5732H126.152C126.182 25.1182 126.398 25.5518 126.803 25.874C127.213 26.1904 127.752 26.3486 128.42 26.3486C129.035 26.3486 129.527 26.2256 129.896 25.9795C130.271 25.7275 130.459 25.3936 130.459 24.9775ZM140.074 27.5C139.98 27.3125 139.904 26.9785 139.846 26.498C139.09 27.2832 138.188 27.6758 137.139 27.6758C136.201 27.6758 135.431 27.4121 134.827 26.8848C134.229 26.3516 133.931 25.6777 133.931 24.8633C133.931 23.873 134.306 23.1055 135.056 22.5605C135.812 22.0098 136.872 21.7344 138.237 21.7344H139.819V20.9873C139.819 20.4189 139.649 19.9678 139.31 19.6338C138.97 19.2939 138.469 19.124 137.807 19.124C137.227 19.124 136.74 19.2705 136.348 19.5635C135.955 19.8564 135.759 20.2109 135.759 20.627H134.124C134.124 20.1523 134.291 19.6953 134.625 19.2559C134.965 18.8105 135.422 18.459 135.996 18.2012C136.576 17.9434 137.212 17.8145 137.903 17.8145C138.999 17.8145 139.857 18.0898 140.479 18.6406C141.1 19.1855 141.422 19.9385 141.445 20.8994V25.2764C141.445 26.1494 141.557 26.8438 141.779 27.3594V27.5H140.074ZM137.376 26.2607C137.886 26.2607 138.369 26.1289 138.826 25.8652C139.283 25.6016 139.614 25.2588 139.819 24.8369V22.8857H138.545C136.553 22.8857 135.557 23.4688 135.557 24.6348C135.557 25.1445 135.727 25.543 136.066 25.8301C136.406 26.1172 136.843 26.2607 137.376 26.2607ZM149.531 24.9775C149.531 24.5381 149.364 24.1982 149.03 23.958C148.702 23.7119 148.125 23.501 147.299 23.3252C146.479 23.1494 145.825 22.9385 145.339 22.6924C144.858 22.4463 144.501 22.1533 144.267 21.8135C144.038 21.4736 143.924 21.0693 143.924 20.6006C143.924 19.8213 144.252 19.1621 144.908 18.623C145.57 18.084 146.414 17.8145 147.439 17.8145C148.518 17.8145 149.391 18.0928 150.059 18.6494C150.732 19.2061 151.069 19.918 151.069 20.7852H149.435C149.435 20.3398 149.244 19.9561 148.863 19.6338C148.488 19.3115 148.014 19.1504 147.439 19.1504C146.848 19.1504 146.385 19.2793 146.051 19.5371C145.717 19.7949 145.55 20.1318 145.55 20.5479C145.55 20.9404 145.705 21.2363 146.016 21.4355C146.326 21.6348 146.886 21.8252 147.694 22.0068C148.509 22.1885 149.168 22.4053 149.672 22.6572C150.176 22.9092 150.548 23.2139 150.788 23.5713C151.034 23.9229 151.157 24.3535 151.157 24.8633C151.157 25.7129 150.817 26.3955 150.138 26.9111C149.458 27.4209 148.576 27.6758 147.492 27.6758C146.73 27.6758 146.057 27.541 145.471 27.2715C144.885 27.002 144.425 26.627 144.091 26.1465C143.763 25.6602 143.599 25.1357 143.599 24.5732H145.225C145.254 25.1182 145.471 25.5518 145.875 25.874C146.285 26.1904 146.824 26.3486 147.492 26.3486C148.107 26.3486 148.6 26.2256 148.969 25.9795C149.344 25.7275 149.531 25.3936 149.531 24.9775Z" fill="black" fill-opacity="0.8"/>
<path d="M100.644 37.3075L101.274 36.5H100.25H79.25H78.1807L78.8663 37.3206L89.7284 50.3206L90.1255 50.7959L90.5063 50.3075L100.644 37.3075Z" fill="#CEC090" stroke="#CEC090"/>
</g>
<defs>
<filter id="filter0_d" x="0" y="0" width="179.5" height="60.5917" filterUnits="userSpaceOnUse" color-interpolation-filters="sRGB">
<feFlood flood-opacity="0" result="BackgroundImageFix"/>
<feColorMatrix in="SourceAlpha" type="matrix" values="0 0 0 0 0 0 0 0 0 0 0 0 0 0 0 0 0 0 127 0"/>
<feOffset dy="2"/>
<feGaussianBlur stdDeviation="3.5"/>
<feColorMatrix type="matrix" values="0 0 0 0 0 0 0 0 0 0 0 0 0 0 0 0 0 0 0.15 0"/>
<feBlend mode="normal" in2="BackgroundImageFix" result="effect1_dropShadow"/>
<feBlend mode="normal" in="SourceGraphic" in2="effect1_dropShadow" result="shape"/>
</filter>
</defs>
</svg>
