<svg width="193" height="61" viewBox="0 0 193 61" fill="none" xmlns="http://www.w3.org/2000/svg">
<g filter="url(#filter0_d)">
<rect x="7" y="5" width="178.5" height="32" rx="16" fill="#D37F7F"/>
<circle cx="23" cy="21" r="16" fill="white" fill-opacity="0.15"/>
<path d="M19.0187 22.5562L15.0955 18.6423C13.6348 17.1722 13.6348 14.8033 15.0955 13.3427L21.6686 19.897L19.0187 22.5562ZM25.3671 20.8614L23.9907 22.2378L30.4326 28.6798L29.1124 30L22.6704 23.558L16.2285 30L14.9082 28.6798L24.0468 19.5412C23.382 18.1086 23.8502 16.0955 25.339 14.6067C27.1274 12.8089 29.6929 12.4719 31.06 13.8389C32.4364 15.2153 32.0993 17.7809 30.3015 19.5693C28.8128 21.058 26.7997 21.5262 25.3671 20.8614Z" fill="black" fill-opacity="0.8"/>
<path d="M63.0342 27.5H61.3379V21.585H54.8867V27.5H53.1992V14.7031H54.8867V20.2051H61.3379V14.7031H63.0342V27.5ZM65.3457 22.6572C65.3457 21.7256 65.5273 20.8877 65.8906 20.1436C66.2598 19.3994 66.7695 18.8252 67.4199 18.4209C68.0762 18.0166 68.8232 17.8145 69.6611 17.8145C70.9561 17.8145 72.002 18.2627 72.7988 19.1592C73.6016 20.0557 74.0029 21.248 74.0029 22.7363V22.8506C74.0029 23.7764 73.8242 24.6084 73.4668 25.3467C73.1152 26.0791 72.6084 26.6504 71.9463 27.0605C71.29 27.4707 70.5342 27.6758 69.6787 27.6758C68.3896 27.6758 67.3438 27.2275 66.541 26.3311C65.7441 25.4346 65.3457 24.248 65.3457 22.7715V22.6572ZM66.9805 22.8506C66.9805 23.9053 67.2236 24.752 67.71 25.3906C68.2021 26.0293 68.8584 26.3486 69.6787 26.3486C70.5049 26.3486 71.1611 26.0264 71.6475 25.3818C72.1338 24.7314 72.377 23.8232 72.377 22.6572C72.377 21.6143 72.1279 20.7705 71.6299 20.126C71.1377 19.4756 70.4814 19.1504 69.6611 19.1504C68.8584 19.1504 68.2109 19.4697 67.7188 20.1084C67.2266 20.7471 66.9805 21.6611 66.9805 22.8506ZM66.7695 15.4502C66.7695 15.1865 66.8486 14.9668 67.0068 14.791C67.1709 14.6094 67.4111 14.5186 67.7275 14.5186C68.0439 14.5186 68.2842 14.6094 68.4482 14.791C68.6123 14.9668 68.6943 15.1865 68.6943 15.4502C68.6943 15.7139 68.6123 15.9336 68.4482 16.1094C68.2842 16.2852 68.0439 16.373 67.7275 16.373C67.4111 16.373 67.1709 16.2852 67.0068 16.1094C66.8486 15.9336 66.7695 15.7139 66.7695 15.4502ZM70.5488 15.4678C70.5488 15.2041 70.6279 14.9814 70.7861 14.7998C70.9502 14.6182 71.1904 14.5273 71.5068 14.5273C71.8232 14.5273 72.0635 14.6182 72.2275 14.7998C72.3916 14.9814 72.4736 15.2041 72.4736 15.4678C72.4736 15.7314 72.3916 15.9512 72.2275 16.127C72.0635 16.3027 71.8232 16.3906 71.5068 16.3906C71.1904 16.3906 70.9502 16.3027 70.7861 16.127C70.6279 15.9512 70.5488 15.7314 70.5488 15.4678ZM79.0127 25.1182L81.2275 17.9902H82.9678L79.1445 28.9678C78.5527 30.5498 77.6123 31.3408 76.3232 31.3408L76.0156 31.3145L75.4092 31.2002V29.8818L75.8486 29.917C76.3994 29.917 76.8271 29.8057 77.1318 29.583C77.4424 29.3604 77.6973 28.9531 77.8965 28.3613L78.2568 27.3945L74.8643 17.9902H76.6396L79.0127 25.1182ZM86.0527 19.1416C86.7734 18.2568 87.7109 17.8145 88.8652 17.8145C90.875 17.8145 91.8887 18.9482 91.9062 21.2158V27.5H90.2803V21.207C90.2744 20.5215 90.1162 20.0146 89.8057 19.6865C89.501 19.3584 89.0234 19.1943 88.373 19.1943C87.8457 19.1943 87.3828 19.335 86.9844 19.6162C86.5859 19.8975 86.2754 20.2666 86.0527 20.7236V27.5H84.4268V14H86.0527V19.1416ZM96.5469 15.6875V17.9902H98.3223V19.2471H96.5469V25.1445C96.5469 25.5254 96.626 25.8125 96.7842 26.0059C96.9424 26.1934 97.2119 26.2871 97.5928 26.2871C97.7803 26.2871 98.0381 26.252 98.3662 26.1816V27.5C97.9385 27.6172 97.5225 27.6758 97.1182 27.6758C96.3916 27.6758 95.8438 27.4561 95.4746 27.0166C95.1055 26.5771 94.9209 25.9531 94.9209 25.1445V19.2471H93.1895V17.9902H94.9209V15.6875H96.5469ZM103.341 25.1182L105.556 17.9902H107.296L103.473 28.9678C102.881 30.5498 101.94 31.3408 100.651 31.3408L100.344 31.3145L99.7373 31.2002V29.8818L100.177 29.917C100.728 29.917 101.155 29.8057 101.46 29.583C101.771 29.3604 102.025 28.9531 102.225 28.3613L102.585 27.3945L99.1924 17.9902H100.968L103.341 25.1182ZM114.485 27.5C114.392 27.3125 114.315 26.9785 114.257 26.498C113.501 27.2832 112.599 27.6758 111.55 27.6758C110.612 27.6758 109.842 27.4121 109.238 26.8848C108.641 26.3516 108.342 25.6777 108.342 24.8633C108.342 23.873 108.717 23.1055 109.467 22.5605C110.223 22.0098 111.283 21.7344 112.648 21.7344H114.23V20.9873C114.23 20.4189 114.061 19.9678 113.721 19.6338C113.381 19.2939 112.88 19.124 112.218 19.124C111.638 19.124 111.151 19.2705 110.759 19.5635C110.366 19.8564 110.17 20.2109 110.17 20.627H108.535C108.535 20.1523 108.702 19.6953 109.036 19.2559C109.376 18.8105 109.833 18.459 110.407 18.2012C110.987 17.9434 111.623 17.8145 112.314 17.8145C113.41 17.8145 114.269 18.0898 114.89 18.6406C115.511 19.1855 115.833 19.9385 115.856 20.8994V25.2764C115.856 26.1494 115.968 26.8438 116.19 27.3594V27.5H114.485ZM111.787 26.2607C112.297 26.2607 112.78 26.1289 113.237 25.8652C113.694 25.6016 114.025 25.2588 114.23 24.8369V22.8857H112.956C110.964 22.8857 109.968 23.4688 109.968 24.6348C109.968 25.1445 110.138 25.543 110.478 25.8301C110.817 26.1172 111.254 26.2607 111.787 26.2607ZM109.66 15.4502C109.66 15.1865 109.739 14.9668 109.897 14.791C110.062 14.6094 110.302 14.5186 110.618 14.5186C110.935 14.5186 111.175 14.6094 111.339 14.791C111.503 14.9668 111.585 15.1865 111.585 15.4502C111.585 15.7139 111.503 15.9336 111.339 16.1094C111.175 16.2852 110.935 16.373 110.618 16.373C110.302 16.373 110.062 16.2852 109.897 16.1094C109.739 15.9336 109.66 15.7139 109.66 15.4502ZM113.439 15.4678C113.439 15.2041 113.519 14.9814 113.677 14.7998C113.841 14.6182 114.081 14.5273 114.397 14.5273C114.714 14.5273 114.954 14.6182 115.118 14.7998C115.282 14.9814 115.364 15.2041 115.364 15.4678C115.364 15.7314 115.282 15.9512 115.118 16.127C114.954 16.3027 114.714 16.3906 114.397 16.3906C114.081 16.3906 113.841 16.3027 113.677 16.127C113.519 15.9512 113.439 15.7314 113.439 15.4678ZM119.943 17.9902L119.996 19.1855C120.723 18.2715 121.672 17.8145 122.844 17.8145C124.854 17.8145 125.867 18.9482 125.885 21.2158V27.5H124.259V21.207C124.253 20.5215 124.095 20.0146 123.784 19.6865C123.479 19.3584 123.002 19.1943 122.352 19.1943C121.824 19.1943 121.361 19.335 120.963 19.6162C120.564 19.8975 120.254 20.2666 120.031 20.7236V27.5H118.405V17.9902H119.943ZM132.415 22.666C132.415 21.1836 132.758 20.0059 133.443 19.1328C134.129 18.2539 135.037 17.8145 136.168 17.8145C137.328 17.8145 138.233 18.2246 138.884 19.0449L138.963 17.9902H140.448V27.2715C140.448 28.502 140.082 29.4717 139.35 30.1807C138.623 30.8896 137.645 31.2441 136.414 31.2441C135.729 31.2441 135.058 31.0977 134.401 30.8047C133.745 30.5117 133.244 30.1104 132.898 29.6006L133.742 28.625C134.439 29.4863 135.292 29.917 136.3 29.917C137.091 29.917 137.706 29.6943 138.146 29.249C138.591 28.8037 138.813 28.1768 138.813 27.3682V26.5508C138.163 27.3008 137.275 27.6758 136.15 27.6758C135.037 27.6758 134.135 27.2275 133.443 26.3311C132.758 25.4346 132.415 24.2129 132.415 22.666ZM134.05 22.8506C134.05 23.9229 134.27 24.7666 134.709 25.3818C135.148 25.9912 135.764 26.2959 136.555 26.2959C137.58 26.2959 138.333 25.8301 138.813 24.8984V20.5566C138.315 19.6484 137.568 19.1943 136.572 19.1943C135.781 19.1943 135.163 19.502 134.718 20.1172C134.272 20.7324 134.05 21.6436 134.05 22.8506ZM147.506 19.4492C147.26 19.4082 146.993 19.3877 146.706 19.3877C145.64 19.3877 144.916 19.8418 144.535 20.75V27.5H142.909V17.9902H144.491L144.518 19.0889C145.051 18.2393 145.807 17.8145 146.785 17.8145C147.102 17.8145 147.342 17.8555 147.506 17.9375V19.4492ZM150.775 27.5H149.149V17.9902H150.775V27.5ZM149.018 15.4678C149.018 15.2041 149.097 14.9814 149.255 14.7998C149.419 14.6182 149.659 14.5273 149.976 14.5273C150.292 14.5273 150.532 14.6182 150.696 14.7998C150.86 14.9814 150.942 15.2041 150.942 15.4678C150.942 15.7314 150.86 15.9512 150.696 16.127C150.532 16.3027 150.292 16.3906 149.976 16.3906C149.659 16.3906 149.419 16.3027 149.255 16.127C149.097 15.9512 149.018 15.7314 149.018 15.4678ZM155.152 27.5H153.526V14H155.152V27.5ZM159.529 27.5H157.903V14H159.529V27.5ZM163.906 27.5H162.28V17.9902H163.906V27.5ZM162.148 15.4678C162.148 15.2041 162.228 14.9814 162.386 14.7998C162.55 14.6182 162.79 14.5273 163.106 14.5273C163.423 14.5273 163.663 14.6182 163.827 14.7998C163.991 14.9814 164.073 15.2041 164.073 15.4678C164.073 15.7314 163.991 15.9512 163.827 16.127C163.663 16.3027 163.423 16.3906 163.106 16.3906C162.79 16.3906 162.55 16.3027 162.386 16.127C162.228 15.9512 162.148 15.7314 162.148 15.4678Z" fill="black" fill-opacity="0.8"/>
<path d="M85.75 36.5H84.6807L85.3663 37.3206L96.2284 50.3206L96.6255 50.7959L97.0063 50.3075L107.144 37.3075L107.774 36.5H106.75H85.75Z" fill="#D37F7F" stroke="#D37F7F"/>
</g>
<defs>
<filter id="filter0_d" x="0" y="0" width="192.5" height="60.5917" filterUnits="userSpaceOnUse" color-interpolation-filters="sRGB">
<feFlood flood-opacity="0" result="BackgroundImageFix"/>
<feColorMatrix in="SourceAlpha" type="matrix" values="0 0 0 0 0 0 0 0 0 0 0 0 0 0 0 0 0 0 127 0"/>
<feOffset dy="2"/>
<feGaussianBlur stdDeviation="3.5"/>
<feColorMatrix type="matrix" values="0 0 0 0 0 0 0 0 0 0 0 0 0 0 0 0 0 0 0.15 0"/>
<feBlend mode="normal" in2="BackgroundImageFix" result="effect1_dropShadow"/>
<feBlend mode="normal" in="SourceGraphic" in2="effect1_dropShadow" result="shape"/>
</filter>
</defs>
</svg>
