<svg width="166" height="61" viewBox="0 0 166 61" fill="none" xmlns="http://www.w3.org/2000/svg">
<g filter="url(#filter0_d)">
<rect x="7" y="5" width="151.5" height="32" rx="16" fill="#D37F7F"/>
<circle cx="23" cy="21" r="16" fill="white" fill-opacity="0.15"/>
<path d="M19.0187 22.5562L15.0955 18.6423C13.6348 17.1722 13.6348 14.8033 15.0955 13.3427L21.6686 19.897L19.0187 22.5562ZM25.3671 20.8614L23.9907 22.2378L30.4326 28.6798L29.1124 30L22.6704 23.558L16.2285 30L14.9082 28.6798L24.0468 19.5412C23.382 18.1086 23.8502 16.0955 25.339 14.6067C27.1274 12.8089 29.6929 12.4719 31.06 13.8389C32.4364 15.2153 32.0993 17.7809 30.3015 19.5693C28.8128 21.058 26.7997 21.5262 25.3671 20.8614Z" fill="black" fill-opacity="0.8"/>
<path d="M56.6357 21.5498L55.0713 23.1758V27.5H53.3838V14.7031H55.0713V21.0312L60.7578 14.7031H62.7969L57.7607 20.3545L63.1924 27.5H61.1709L56.6357 21.5498ZM70.2852 27.5C70.1914 27.3125 70.1152 26.9785 70.0566 26.498C69.3008 27.2832 68.3984 27.6758 67.3496 27.6758C66.4121 27.6758 65.6416 27.4121 65.0381 26.8848C64.4404 26.3516 64.1416 25.6777 64.1416 24.8633C64.1416 23.873 64.5166 23.1055 65.2666 22.5605C66.0225 22.0098 67.083 21.7344 68.4482 21.7344H70.0303V20.9873C70.0303 20.4189 69.8604 19.9678 69.5205 19.6338C69.1807 19.2939 68.6797 19.124 68.0176 19.124C67.4375 19.124 66.9512 19.2705 66.5586 19.5635C66.166 19.8564 65.9697 20.2109 65.9697 20.627H64.335C64.335 20.1523 64.502 19.6953 64.8359 19.2559C65.1758 18.8105 65.6328 18.459 66.207 18.2012C66.7871 17.9434 67.4229 17.8145 68.1143 17.8145C69.21 17.8145 70.0684 18.0898 70.6895 18.6406C71.3105 19.1855 71.6328 19.9385 71.6562 20.8994V25.2764C71.6562 26.1494 71.7676 26.8438 71.9902 27.3594V27.5H70.2852ZM67.5869 26.2607C68.0967 26.2607 68.5801 26.1289 69.0371 25.8652C69.4941 25.6016 69.8252 25.2588 70.0303 24.8369V22.8857H68.7559C66.7637 22.8857 65.7676 23.4688 65.7676 24.6348C65.7676 25.1445 65.9375 25.543 66.2773 25.8301C66.6172 26.1172 67.0537 26.2607 67.5869 26.2607ZM80.0762 26.5596C79.4434 27.3037 78.5146 27.6758 77.29 27.6758C76.2764 27.6758 75.5029 27.3828 74.9697 26.7969C74.4424 26.2051 74.1758 25.332 74.1699 24.1777V17.9902H75.7959V24.1338C75.7959 25.5752 76.3818 26.2959 77.5537 26.2959C78.7959 26.2959 79.6221 25.833 80.0322 24.9072V17.9902H81.6582V27.5H80.1113L80.0762 26.5596ZM92.1699 22.8506C92.1699 24.2979 91.8389 25.4639 91.1768 26.3486C90.5146 27.2334 89.6182 27.6758 88.4873 27.6758C87.333 27.6758 86.4248 27.3096 85.7627 26.5771V31.1562H84.1367V17.9902H85.6221L85.7012 19.0449C86.3633 18.2246 87.2832 17.8145 88.4609 17.8145C89.6035 17.8145 90.5059 18.2451 91.168 19.1064C91.8359 19.9678 92.1699 21.166 92.1699 22.7012V22.8506ZM90.5439 22.666C90.5439 21.5938 90.3154 20.7471 89.8584 20.126C89.4014 19.5049 88.7744 19.1943 87.9775 19.1943C86.9932 19.1943 86.2549 19.6309 85.7627 20.5039V25.0479C86.249 25.915 86.9932 26.3486 87.9951 26.3486C88.7744 26.3486 89.3926 26.041 89.8496 25.4258C90.3125 24.8047 90.5439 23.8848 90.5439 22.666ZM102.277 22.8506C102.277 24.2979 101.946 25.4639 101.284 26.3486C100.622 27.2334 99.7256 27.6758 98.5947 27.6758C97.4404 27.6758 96.5322 27.3096 95.8701 26.5771V31.1562H94.2441V17.9902H95.7295L95.8086 19.0449C96.4707 18.2246 97.3906 17.8145 98.5684 17.8145C99.7109 17.8145 100.613 18.2451 101.275 19.1064C101.943 19.9678 102.277 21.166 102.277 22.7012V22.8506ZM100.651 22.666C100.651 21.5938 100.423 20.7471 99.9658 20.126C99.5088 19.5049 98.8818 19.1943 98.085 19.1943C97.1006 19.1943 96.3623 19.6309 95.8701 20.5039V25.0479C96.3564 25.915 97.1006 26.3486 98.1025 26.3486C98.8818 26.3486 99.5 26.041 99.957 25.4258C100.42 24.8047 100.651 23.8848 100.651 22.666ZM110.223 26.5596C109.59 27.3037 108.661 27.6758 107.437 27.6758C106.423 27.6758 105.649 27.3828 105.116 26.7969C104.589 26.2051 104.322 25.332 104.316 24.1777V17.9902H105.942V24.1338C105.942 25.5752 106.528 26.2959 107.7 26.2959C108.942 26.2959 109.769 25.833 110.179 24.9072V17.9902H111.805V27.5H110.258L110.223 26.5596ZM118.88 19.4492C118.634 19.4082 118.367 19.3877 118.08 19.3877C117.014 19.3877 116.29 19.8418 115.909 20.75V27.5H114.283V17.9902H115.865L115.892 19.0889C116.425 18.2393 117.181 17.8145 118.159 17.8145C118.476 17.8145 118.716 17.8555 118.88 17.9375V19.4492ZM122.149 27.5H120.523V17.9902H122.149V27.5ZM120.392 15.4678C120.392 15.2041 120.471 14.9814 120.629 14.7998C120.793 14.6182 121.033 14.5273 121.35 14.5273C121.666 14.5273 121.906 14.6182 122.07 14.7998C122.234 14.9814 122.316 15.2041 122.316 15.4678C122.316 15.7314 122.234 15.9512 122.07 16.127C121.906 16.3027 121.666 16.3906 121.35 16.3906C121.033 16.3906 120.793 16.3027 120.629 16.127C120.471 15.9512 120.392 15.7314 120.392 15.4678ZM129.805 21.084L130.455 14.7031H137.012V16.2061H131.835L131.448 19.6953C132.075 19.3262 132.787 19.1416 133.584 19.1416C134.75 19.1416 135.676 19.5283 136.361 20.3018C137.047 21.0693 137.39 22.1094 137.39 23.4219C137.39 24.7402 137.032 25.7803 136.317 26.542C135.608 27.2979 134.615 27.6758 133.338 27.6758C132.207 27.6758 131.284 27.3623 130.569 26.7354C129.854 26.1084 129.447 25.2412 129.348 24.1338H130.886C130.985 24.8662 131.246 25.4199 131.668 25.7949C132.09 26.1641 132.646 26.3486 133.338 26.3486C134.094 26.3486 134.686 26.0908 135.113 25.5752C135.547 25.0596 135.764 24.3477 135.764 23.4395C135.764 22.584 135.529 21.8984 135.061 21.3828C134.598 20.8613 133.979 20.6006 133.206 20.6006C132.497 20.6006 131.94 20.7559 131.536 21.0664L131.105 21.418L129.805 21.084Z" fill="black" fill-opacity="0.8"/>
<path d="M72.25 36.5H71.1807L71.8663 37.3206L82.7284 50.3206L83.1255 50.7959L83.5063 50.3075L93.6443 37.3075L94.274 36.5H93.25H72.25Z" fill="#D37F7F" stroke="#D37F7F"/>
</g>
<defs>
<filter id="filter0_d" x="0" y="0" width="165.5" height="60.5917" filterUnits="userSpaceOnUse" color-interpolation-filters="sRGB">
<feFlood flood-opacity="0" result="BackgroundImageFix"/>
<feColorMatrix in="SourceAlpha" type="matrix" values="0 0 0 0 0 0 0 0 0 0 0 0 0 0 0 0 0 0 127 0"/>
<feOffset dy="2"/>
<feGaussianBlur stdDeviation="3.5"/>
<feColorMatrix type="matrix" values="0 0 0 0 0 0 0 0 0 0 0 0 0 0 0 0 0 0 0.15 0"/>
<feBlend mode="normal" in2="BackgroundImageFix" result="effect1_dropShadow"/>
<feBlend mode="normal" in="SourceGraphic" in2="effect1_dropShadow" result="shape"/>
</filter>
</defs>
</svg>
