<svg width="189" height="61" viewBox="0 0 189 61" fill="none" xmlns="http://www.w3.org/2000/svg">
<g filter="url(#filter0_d)">
<rect x="7" y="5" width="174.5" height="32" rx="16" fill="#50AAFF"/>
<circle cx="23" cy="21" r="16" fill="white" fill-opacity="0.15"/>
<path d="M23.3889 13L13 18.6667L23.3889 24.3333L31.8889 19.6961V26.2222H33.7778V18.6667L23.3889 13ZM16.7778 22.6144V26.3922L23.3889 30L30 26.3922V22.6144L23.3889 26.2222L16.7778 22.6144Z" fill="black" fill-opacity="0.8"/>
<path d="M56.5078 21.5498L54.9434 23.1758V27.5H53.2559V14.7031H54.9434V21.0312L60.6299 14.7031H62.6689L57.6328 20.3545L63.0645 27.5H61.043L56.5078 21.5498ZM63.6094 22.6572C63.6094 21.7256 63.791 20.8877 64.1543 20.1436C64.5234 19.3994 65.0332 18.8252 65.6836 18.4209C66.3398 18.0166 67.0869 17.8145 67.9248 17.8145C69.2197 17.8145 70.2656 18.2627 71.0625 19.1592C71.8652 20.0557 72.2666 21.248 72.2666 22.7363V22.8506C72.2666 23.7764 72.0879 24.6084 71.7305 25.3467C71.3789 26.0791 70.8721 26.6504 70.21 27.0605C69.5537 27.4707 68.7979 27.6758 67.9424 27.6758C66.6533 27.6758 65.6074 27.2275 64.8047 26.3311C64.0078 25.4346 63.6094 24.248 63.6094 22.7715V22.6572ZM65.2441 22.8506C65.2441 23.9053 65.4873 24.752 65.9736 25.3906C66.4658 26.0293 67.1221 26.3486 67.9424 26.3486C68.7686 26.3486 69.4248 26.0264 69.9111 25.3818C70.3975 24.7314 70.6406 23.8232 70.6406 22.6572C70.6406 21.6143 70.3916 20.7705 69.8936 20.126C69.4014 19.4756 68.7451 19.1504 67.9248 19.1504C67.1221 19.1504 66.4746 19.4697 65.9824 20.1084C65.4902 20.7471 65.2441 21.6611 65.2441 22.8506ZM75.8438 17.9902L75.8965 19.1855C76.623 18.2715 77.5723 17.8145 78.7441 17.8145C80.7539 17.8145 81.7676 18.9482 81.7852 21.2158V27.5H80.1592V21.207C80.1533 20.5215 79.9951 20.0146 79.6846 19.6865C79.3799 19.3584 78.9023 19.1943 78.252 19.1943C77.7246 19.1943 77.2617 19.335 76.8633 19.6162C76.4648 19.8975 76.1543 20.2666 75.9316 20.7236V27.5H74.3057V17.9902H75.8438ZM86.4434 15.6875V17.9902H88.2188V19.2471H86.4434V25.1445C86.4434 25.5254 86.5225 25.8125 86.6807 26.0059C86.8389 26.1934 87.1084 26.2871 87.4893 26.2871C87.6768 26.2871 87.9346 26.252 88.2627 26.1816V27.5C87.835 27.6172 87.4189 27.6758 87.0146 27.6758C86.2881 27.6758 85.7402 27.4561 85.3711 27.0166C85.002 26.5771 84.8174 25.9531 84.8174 25.1445V19.2471H83.0859V17.9902H84.8174V15.6875H86.4434ZM91.8926 27.5H90.2666V17.9902H91.8926V27.5ZM90.1348 15.4678C90.1348 15.2041 90.2139 14.9814 90.3721 14.7998C90.5361 14.6182 90.7764 14.5273 91.0928 14.5273C91.4092 14.5273 91.6494 14.6182 91.8135 14.7998C91.9775 14.9814 92.0596 15.2041 92.0596 15.4678C92.0596 15.7314 91.9775 15.9512 91.8135 16.127C91.6494 16.3027 91.4092 16.3906 91.0928 16.3906C90.7764 16.3906 90.5361 16.3027 90.3721 16.127C90.2139 15.9512 90.1348 15.7314 90.1348 15.4678ZM96.041 17.9902L96.0938 19.1855C96.8203 18.2715 97.7695 17.8145 98.9414 17.8145C100.951 17.8145 101.965 18.9482 101.982 21.2158V27.5H100.356V21.207C100.351 20.5215 100.192 20.0146 99.8818 19.6865C99.5771 19.3584 99.0996 19.1943 98.4492 19.1943C97.9219 19.1943 97.459 19.335 97.0605 19.6162C96.6621 19.8975 96.3516 20.2666 96.1289 20.7236V27.5H94.5029V17.9902H96.041ZM107.089 23.0967L106.069 24.1602V27.5H104.443V14H106.069V22.165L106.939 21.1191L109.901 17.9902H111.879L108.179 21.9629L112.31 27.5H110.402L107.089 23.0967ZM119.429 27.5C119.335 27.3125 119.259 26.9785 119.2 26.498C118.444 27.2832 117.542 27.6758 116.493 27.6758C115.556 27.6758 114.785 27.4121 114.182 26.8848C113.584 26.3516 113.285 25.6777 113.285 24.8633C113.285 23.873 113.66 23.1055 114.41 22.5605C115.166 22.0098 116.227 21.7344 117.592 21.7344H119.174V20.9873C119.174 20.4189 119.004 19.9678 118.664 19.6338C118.324 19.2939 117.823 19.124 117.161 19.124C116.581 19.124 116.095 19.2705 115.702 19.5635C115.31 19.8564 115.113 20.2109 115.113 20.627H113.479C113.479 20.1523 113.646 19.6953 113.979 19.2559C114.319 18.8105 114.776 18.459 115.351 18.2012C115.931 17.9434 116.566 17.8145 117.258 17.8145C118.354 17.8145 119.212 18.0898 119.833 18.6406C120.454 19.1855 120.776 19.9385 120.8 20.8994V25.2764C120.8 26.1494 120.911 26.8438 121.134 27.3594V27.5H119.429ZM116.73 26.2607C117.24 26.2607 117.724 26.1289 118.181 25.8652C118.638 25.6016 118.969 25.2588 119.174 24.8369V22.8857H117.899C115.907 22.8857 114.911 23.4688 114.911 24.6348C114.911 25.1445 115.081 25.543 115.421 25.8301C115.761 26.1172 116.197 26.2607 116.73 26.2607ZM124.887 17.9902L124.939 19.1855C125.666 18.2715 126.615 17.8145 127.787 17.8145C129.797 17.8145 130.811 18.9482 130.828 21.2158V27.5H129.202V21.207C129.196 20.5215 129.038 20.0146 128.728 19.6865C128.423 19.3584 127.945 19.1943 127.295 19.1943C126.768 19.1943 126.305 19.335 125.906 19.6162C125.508 19.8975 125.197 20.2666 124.975 20.7236V27.5H123.349V17.9902H124.887ZM132.894 22.666C132.894 21.1836 133.236 20.0059 133.922 19.1328C134.607 18.2539 135.516 17.8145 136.646 17.8145C137.807 17.8145 138.712 18.2246 139.362 19.0449L139.441 17.9902H140.927V27.2715C140.927 28.502 140.561 29.4717 139.828 30.1807C139.102 30.8896 138.123 31.2441 136.893 31.2441C136.207 31.2441 135.536 31.0977 134.88 30.8047C134.224 30.5117 133.723 30.1104 133.377 29.6006L134.221 28.625C134.918 29.4863 135.771 29.917 136.778 29.917C137.569 29.917 138.185 29.6943 138.624 29.249C139.069 28.8037 139.292 28.1768 139.292 27.3682V26.5508C138.642 27.3008 137.754 27.6758 136.629 27.6758C135.516 27.6758 134.613 27.2275 133.922 26.3311C133.236 25.4346 132.894 24.2129 132.894 22.666ZM134.528 22.8506C134.528 23.9229 134.748 24.7666 135.188 25.3818C135.627 25.9912 136.242 26.2959 137.033 26.2959C138.059 26.2959 138.812 25.8301 139.292 24.8984V20.5566C138.794 19.6484 138.047 19.1943 137.051 19.1943C136.26 19.1943 135.642 19.502 135.196 20.1172C134.751 20.7324 134.528 21.6436 134.528 22.8506ZM149.259 27.5C149.165 27.3125 149.089 26.9785 149.03 26.498C148.274 27.2832 147.372 27.6758 146.323 27.6758C145.386 27.6758 144.615 27.4121 144.012 26.8848C143.414 26.3516 143.115 25.6777 143.115 24.8633C143.115 23.873 143.49 23.1055 144.24 22.5605C144.996 22.0098 146.057 21.7344 147.422 21.7344H149.004V20.9873C149.004 20.4189 148.834 19.9678 148.494 19.6338C148.154 19.2939 147.653 19.124 146.991 19.124C146.411 19.124 145.925 19.2705 145.532 19.5635C145.14 19.8564 144.943 20.2109 144.943 20.627H143.309C143.309 20.1523 143.476 19.6953 143.81 19.2559C144.149 18.8105 144.606 18.459 145.181 18.2012C145.761 17.9434 146.396 17.8145 147.088 17.8145C148.184 17.8145 149.042 18.0898 149.663 18.6406C150.284 19.1855 150.606 19.9385 150.63 20.8994V25.2764C150.63 26.1494 150.741 26.8438 150.964 27.3594V27.5H149.259ZM146.561 26.2607C147.07 26.2607 147.554 26.1289 148.011 25.8652C148.468 25.6016 148.799 25.2588 149.004 24.8369V22.8857H147.729C145.737 22.8857 144.741 23.4688 144.741 24.6348C144.741 25.1445 144.911 25.543 145.251 25.8301C145.591 26.1172 146.027 26.2607 146.561 26.2607ZM158.716 24.9775C158.716 24.5381 158.549 24.1982 158.215 23.958C157.887 23.7119 157.31 23.501 156.483 23.3252C155.663 23.1494 155.01 22.9385 154.523 22.6924C154.043 22.4463 153.686 22.1533 153.451 21.8135C153.223 21.4736 153.108 21.0693 153.108 20.6006C153.108 19.8213 153.437 19.1621 154.093 18.623C154.755 18.084 155.599 17.8145 156.624 17.8145C157.702 17.8145 158.575 18.0928 159.243 18.6494C159.917 19.2061 160.254 19.918 160.254 20.7852H158.619C158.619 20.3398 158.429 19.9561 158.048 19.6338C157.673 19.3115 157.198 19.1504 156.624 19.1504C156.032 19.1504 155.569 19.2793 155.235 19.5371C154.901 19.7949 154.734 20.1318 154.734 20.5479C154.734 20.9404 154.89 21.2363 155.2 21.4355C155.511 21.6348 156.07 21.8252 156.879 22.0068C157.693 22.1885 158.353 22.4053 158.856 22.6572C159.36 22.9092 159.732 23.2139 159.973 23.5713C160.219 23.9229 160.342 24.3535 160.342 24.8633C160.342 25.7129 160.002 26.3955 159.322 26.9111C158.643 27.4209 157.761 27.6758 156.677 27.6758C155.915 27.6758 155.241 27.541 154.655 27.2715C154.069 27.002 153.609 26.627 153.275 26.1465C152.947 25.6602 152.783 25.1357 152.783 24.5732H154.409C154.438 25.1182 154.655 25.5518 155.06 25.874C155.47 26.1904 156.009 26.3486 156.677 26.3486C157.292 26.3486 157.784 26.2256 158.153 25.9795C158.528 25.7275 158.716 25.3936 158.716 24.9775Z" fill="black" fill-opacity="0.8"/>
<path d="M83.75 36.5H82.6807L83.3663 37.3206L94.2284 50.3206L94.6255 50.7959L95.0063 50.3075L105.144 37.3075L105.774 36.5H104.75H83.75Z" fill="#50AAFF" stroke="#50AAFF"/>
</g>
<defs>
<filter id="filter0_d" x="0" y="0" width="188.5" height="60.5917" filterUnits="userSpaceOnUse" color-interpolation-filters="sRGB">
<feFlood flood-opacity="0" result="BackgroundImageFix"/>
<feColorMatrix in="SourceAlpha" type="matrix" values="0 0 0 0 0 0 0 0 0 0 0 0 0 0 0 0 0 0 127 0"/>
<feOffset dy="2"/>
<feGaussianBlur stdDeviation="3.5"/>
<feColorMatrix type="matrix" values="0 0 0 0 0 0 0 0 0 0 0 0 0 0 0 0 0 0 0.15 0"/>
<feBlend mode="normal" in2="BackgroundImageFix" result="effect1_dropShadow"/>
<feBlend mode="normal" in="SourceGraphic" in2="effect1_dropShadow" result="shape"/>
</filter>
</defs>
</svg>
