<svg width="149" height="61" viewBox="0 0 149 61" fill="none" xmlns="http://www.w3.org/2000/svg">
<g filter="url(#filter0_d)">
<rect x="7" y="5" width="134.5" height="32" rx="16" fill="#C77FD3"/>
<circle cx="23" cy="21" r="16" fill="white" fill-opacity="0.15"/>
<path d="M20.7105 12C18.9747 12 17.4447 13.1095 16.89 14.7558C15.2168 15.0779 14 16.5542 14 18.2632C14 20.2405 15.6016 21.8421 17.5789 21.8421V29H27.4211V27.2105H30.1053C30.5974 27.2105 31 26.8079 31 26.3158V19.1579C31 18.6658 30.5974 18.2632 30.1053 18.2632H28.3158V16.4737C28.3158 14.4963 26.7142 12.8947 24.7368 12.8947H23.2337C22.5 12.3132 21.6321 12 20.7105 12ZM20.7105 13.7895C21.4174 13.7895 22.0795 14.1205 22.5 14.6842H24.7368C25.73 14.6842 26.5263 15.4895 26.5263 16.4737H22.9474C21.1579 16.4737 20.5495 17.4847 19.8158 18.8268C19.0821 20.1689 17.5789 20.0526 17.5789 20.0526C16.5858 20.0526 15.7895 19.2563 15.7895 18.2632C15.7895 17.2789 16.5858 16.4737 17.5789 16.4737H18.4737V16.0263C18.4737 14.7916 19.4758 13.7895 20.7105 13.7895ZM27.4211 20.0526H29.2105V25.4211H27.4211V20.0526Z" fill="black" fill-opacity="0.8"/>
<path d="M56.3359 21.5498L54.7715 23.1758V27.5H53.084V14.7031H54.7715V21.0312L60.458 14.7031H62.4971L57.4609 20.3545L62.8926 27.5H60.8711L56.3359 21.5498ZM73.3779 14.7031V23.4043C73.3721 24.6113 72.9912 25.5986 72.2354 26.3662C71.4854 27.1338 70.4658 27.5645 69.1768 27.6582L68.7285 27.6758C67.3281 27.6758 66.2119 27.2979 65.3799 26.542C64.5479 25.7861 64.126 24.7461 64.1143 23.4219V14.7031H65.7842V23.3691C65.7842 24.2949 66.0391 25.0156 66.5488 25.5312C67.0586 26.041 67.7852 26.2959 68.7285 26.2959C69.6836 26.2959 70.4131 26.041 70.917 25.5312C71.4268 25.0215 71.6816 24.3037 71.6816 23.3779V14.7031H73.3779ZM77.7373 26.1201H83.8018V27.5H76.041V14.7031H77.7373V26.1201ZM90.9561 26.5596C90.3232 27.3037 89.3945 27.6758 88.1699 27.6758C87.1562 27.6758 86.3828 27.3828 85.8496 26.7969C85.3223 26.2051 85.0557 25.332 85.0498 24.1777V17.9902H86.6758V24.1338C86.6758 25.5752 87.2617 26.2959 88.4336 26.2959C89.6758 26.2959 90.502 25.833 90.9121 24.9072V17.9902H92.5381V27.5H90.9912L90.9561 26.5596ZM97.4512 14.7031L101.635 25.1445L105.818 14.7031H108.007V27.5H106.319V22.5166L106.478 17.1377L102.276 27.5H100.984L96.792 17.1641L96.959 22.5166V27.5H95.2715V14.7031H97.4512ZM118.211 24.1602H112.85L111.646 27.5H109.905L114.792 14.7031H116.269L121.164 27.5H119.433L118.211 24.1602ZM113.359 22.7715H117.71L115.53 16.7861L113.359 22.7715Z" fill="black" fill-opacity="0.8"/>
<path d="M85.1443 37.3075L85.774 36.5H84.75H63.75H62.6807L63.3663 37.3206L74.2284 50.3206L74.6255 50.7959L75.0063 50.3075L85.1443 37.3075Z" fill="#C77FD3" stroke="#C77FD3"/>
</g>
<defs>
<filter id="filter0_d" x="0" y="0" width="148.5" height="60.5917" filterUnits="userSpaceOnUse" color-interpolation-filters="sRGB">
<feFlood flood-opacity="0" result="BackgroundImageFix"/>
<feColorMatrix in="SourceAlpha" type="matrix" values="0 0 0 0 0 0 0 0 0 0 0 0 0 0 0 0 0 0 127 0"/>
<feOffset dy="2"/>
<feGaussianBlur stdDeviation="3.5"/>
<feColorMatrix type="matrix" values="0 0 0 0 0 0 0 0 0 0 0 0 0 0 0 0 0 0 0.15 0"/>
<feBlend mode="normal" in2="BackgroundImageFix" result="effect1_dropShadow"/>
<feBlend mode="normal" in="SourceGraphic" in2="effect1_dropShadow" result="shape"/>
</filter>
</defs>
</svg>
