<svg width="132" height="61" viewBox="0 0 132 61" fill="none" xmlns="http://www.w3.org/2000/svg">
<g filter="url(#filter0_d)">
<rect x="7" y="5" width="117.5" height="32" rx="16" fill="#50AAFF"/>
<circle cx="23" cy="21" r="16" fill="white" fill-opacity="0.15"/>
<path d="M23.3889 13L13 18.6667L23.3889 24.3333L31.8889 19.6961V26.2222H33.7778V18.6667L23.3889 13ZM16.7778 22.6144V26.3922L23.3889 30L30 26.3922V22.6144L23.3889 26.2222L16.7778 22.6144Z" fill="black" fill-opacity="0.8"/>
<path d="M55.1572 26.1201H61.2217V27.5H53.4609V14.7031H55.1572V26.1201ZM68.7627 27.5C68.6689 27.3125 68.5928 26.9785 68.5342 26.498C67.7783 27.2832 66.876 27.6758 65.8271 27.6758C64.8896 27.6758 64.1191 27.4121 63.5156 26.8848C62.918 26.3516 62.6191 25.6777 62.6191 24.8633C62.6191 23.873 62.9941 23.1055 63.7441 22.5605C64.5 22.0098 65.5605 21.7344 66.9258 21.7344H68.5078V20.9873C68.5078 20.4189 68.3379 19.9678 67.998 19.6338C67.6582 19.2939 67.1572 19.124 66.4951 19.124C65.915 19.124 65.4287 19.2705 65.0361 19.5635C64.6436 19.8564 64.4473 20.2109 64.4473 20.627H62.8125C62.8125 20.1523 62.9795 19.6953 63.3135 19.2559C63.6533 18.8105 64.1104 18.459 64.6846 18.2012C65.2646 17.9434 65.9004 17.8145 66.5918 17.8145C67.6875 17.8145 68.5459 18.0898 69.167 18.6406C69.7881 19.1855 70.1104 19.9385 70.1338 20.8994V25.2764C70.1338 26.1494 70.2451 26.8438 70.4678 27.3594V27.5H68.7627ZM66.0645 26.2607C66.5742 26.2607 67.0576 26.1289 67.5146 25.8652C67.9717 25.6016 68.3027 25.2588 68.5078 24.8369V22.8857H67.2334C65.2412 22.8857 64.2451 23.4688 64.2451 24.6348C64.2451 25.1445 64.415 25.543 64.7549 25.8301C65.0947 26.1172 65.5312 26.2607 66.0645 26.2607ZM63.9375 15.4502C63.9375 15.1865 64.0166 14.9668 64.1748 14.791C64.3389 14.6094 64.5791 14.5186 64.8955 14.5186C65.2119 14.5186 65.4521 14.6094 65.6162 14.791C65.7803 14.9668 65.8623 15.1865 65.8623 15.4502C65.8623 15.7139 65.7803 15.9336 65.6162 16.1094C65.4521 16.2852 65.2119 16.373 64.8955 16.373C64.5791 16.373 64.3389 16.2852 64.1748 16.1094C64.0166 15.9336 63.9375 15.7139 63.9375 15.4502ZM67.7168 15.4678C67.7168 15.2041 67.7959 14.9814 67.9541 14.7998C68.1182 14.6182 68.3584 14.5273 68.6748 14.5273C68.9912 14.5273 69.2314 14.6182 69.3955 14.7998C69.5596 14.9814 69.6416 15.2041 69.6416 15.4678C69.6416 15.7314 69.5596 15.9512 69.3955 16.127C69.2314 16.3027 68.9912 16.3906 68.6748 16.3906C68.3584 16.3906 68.1182 16.3027 67.9541 16.127C67.7959 15.9512 67.7168 15.7314 67.7168 15.4678ZM78.5537 27.5C78.46 27.3125 78.3838 26.9785 78.3252 26.498C77.5693 27.2832 76.667 27.6758 75.6182 27.6758C74.6807 27.6758 73.9102 27.4121 73.3066 26.8848C72.709 26.3516 72.4102 25.6777 72.4102 24.8633C72.4102 23.873 72.7852 23.1055 73.5352 22.5605C74.291 22.0098 75.3516 21.7344 76.7168 21.7344H78.2988V20.9873C78.2988 20.4189 78.1289 19.9678 77.7891 19.6338C77.4492 19.2939 76.9482 19.124 76.2861 19.124C75.7061 19.124 75.2197 19.2705 74.8271 19.5635C74.4346 19.8564 74.2383 20.2109 74.2383 20.627H72.6035C72.6035 20.1523 72.7705 19.6953 73.1045 19.2559C73.4443 18.8105 73.9014 18.459 74.4756 18.2012C75.0557 17.9434 75.6914 17.8145 76.3828 17.8145C77.4785 17.8145 78.3369 18.0898 78.958 18.6406C79.5791 19.1855 79.9014 19.9385 79.9248 20.8994V25.2764C79.9248 26.1494 80.0361 26.8438 80.2588 27.3594V27.5H78.5537ZM75.8555 26.2607C76.3652 26.2607 76.8486 26.1289 77.3057 25.8652C77.7627 25.6016 78.0938 25.2588 78.2988 24.8369V22.8857H77.0244C75.0322 22.8857 74.0361 23.4688 74.0361 24.6348C74.0361 25.1445 74.2061 25.543 74.5459 25.8301C74.8857 26.1172 75.3223 26.2607 75.8555 26.2607ZM73.7285 15.4502C73.7285 15.1865 73.8076 14.9668 73.9658 14.791C74.1299 14.6094 74.3701 14.5186 74.6865 14.5186C75.0029 14.5186 75.2432 14.6094 75.4072 14.791C75.5713 14.9668 75.6533 15.1865 75.6533 15.4502C75.6533 15.7139 75.5713 15.9336 75.4072 16.1094C75.2432 16.2852 75.0029 16.373 74.6865 16.373C74.3701 16.373 74.1299 16.2852 73.9658 16.1094C73.8076 15.9336 73.7285 15.7139 73.7285 15.4502ZM77.5078 15.4678C77.5078 15.2041 77.5869 14.9814 77.7451 14.7998C77.9092 14.6182 78.1494 14.5273 78.4658 14.5273C78.7822 14.5273 79.0225 14.6182 79.1865 14.7998C79.3506 14.9814 79.4326 15.2041 79.4326 15.4678C79.4326 15.7314 79.3506 15.9512 79.1865 16.127C79.0225 16.3027 78.7822 16.3906 78.4658 16.3906C78.1494 16.3906 77.9092 16.3027 77.7451 16.127C77.5869 15.9512 77.5078 15.7314 77.5078 15.4678ZM85.1279 23.0967L84.1084 24.1602V27.5H82.4824V14H84.1084V22.165L84.9785 21.1191L87.9404 17.9902H89.918L86.2178 21.9629L90.3486 27.5H88.4414L85.1279 23.0967ZM93.3633 27.5H91.7373V17.9902H93.3633V27.5ZM91.6055 15.4678C91.6055 15.2041 91.6846 14.9814 91.8428 14.7998C92.0068 14.6182 92.2471 14.5273 92.5635 14.5273C92.8799 14.5273 93.1201 14.6182 93.2842 14.7998C93.4482 14.9814 93.5303 15.2041 93.5303 15.4678C93.5303 15.7314 93.4482 15.9512 93.2842 16.127C93.1201 16.3027 92.8799 16.3906 92.5635 16.3906C92.2471 16.3906 92.0068 16.3027 91.8428 16.127C91.6846 15.9512 91.6055 15.7314 91.6055 15.4678ZM101.511 24.9775C101.511 24.5381 101.344 24.1982 101.01 23.958C100.682 23.7119 100.104 23.501 99.2783 23.3252C98.458 23.1494 97.8047 22.9385 97.3184 22.6924C96.8379 22.4463 96.4805 22.1533 96.2461 21.8135C96.0176 21.4736 95.9033 21.0693 95.9033 20.6006C95.9033 19.8213 96.2314 19.1621 96.8877 18.623C97.5498 18.084 98.3936 17.8145 99.4189 17.8145C100.497 17.8145 101.37 18.0928 102.038 18.6494C102.712 19.2061 103.049 19.918 103.049 20.7852H101.414C101.414 20.3398 101.224 19.9561 100.843 19.6338C100.468 19.3115 99.9932 19.1504 99.4189 19.1504C98.8271 19.1504 98.3643 19.2793 98.0303 19.5371C97.6963 19.7949 97.5293 20.1318 97.5293 20.5479C97.5293 20.9404 97.6846 21.2363 97.9951 21.4355C98.3057 21.6348 98.8652 21.8252 99.6738 22.0068C100.488 22.1885 101.147 22.4053 101.651 22.6572C102.155 22.9092 102.527 23.2139 102.768 23.5713C103.014 23.9229 103.137 24.3535 103.137 24.8633C103.137 25.7129 102.797 26.3955 102.117 26.9111C101.438 27.4209 100.556 27.6758 99.4717 27.6758C98.71 27.6758 98.0361 27.541 97.4502 27.2715C96.8643 27.002 96.4043 26.627 96.0703 26.1465C95.7422 25.6602 95.5781 25.1357 95.5781 24.5732H97.2041C97.2334 25.1182 97.4502 25.5518 97.8545 25.874C98.2646 26.1904 98.8037 26.3486 99.4717 26.3486C100.087 26.3486 100.579 26.2256 100.948 25.9795C101.323 25.7275 101.511 25.3936 101.511 24.9775Z" fill="black" fill-opacity="0.8"/>
<path d="M55.25 36.5H54.1807L54.8663 37.3206L65.7284 50.3206L66.1255 50.7959L66.5063 50.3075L76.6443 37.3075L77.274 36.5H76.25H55.25Z" fill="#50AAFF" stroke="#50AAFF"/>
</g>
<defs>
<filter id="filter0_d" x="0" y="0" width="131.5" height="60.5917" filterUnits="userSpaceOnUse" color-interpolation-filters="sRGB">
<feFlood flood-opacity="0" result="BackgroundImageFix"/>
<feColorMatrix in="SourceAlpha" type="matrix" values="0 0 0 0 0 0 0 0 0 0 0 0 0 0 0 0 0 0 127 0"/>
<feOffset dy="2"/>
<feGaussianBlur stdDeviation="3.5"/>
<feColorMatrix type="matrix" values="0 0 0 0 0 0 0 0 0 0 0 0 0 0 0 0 0 0 0.15 0"/>
<feBlend mode="normal" in2="BackgroundImageFix" result="effect1_dropShadow"/>
<feBlend mode="normal" in="SourceGraphic" in2="effect1_dropShadow" result="shape"/>
</filter>
</defs>
</svg>
