<svg width="180" height="61" viewBox="0 0 180 61" fill="none" xmlns="http://www.w3.org/2000/svg">
<g filter="url(#filter0_d)">
<rect x="7" y="5" width="165.5" height="32" rx="16" fill="#C77FD3"/>
<circle cx="23" cy="21" r="16" fill="white" fill-opacity="0.15"/>
<path d="M20.7105 12C18.9747 12 17.4447 13.1095 16.89 14.7558C15.2168 15.0779 14 16.5542 14 18.2632C14 20.2405 15.6016 21.8421 17.5789 21.8421V29H27.4211V27.2105H30.1053C30.5974 27.2105 31 26.8079 31 26.3158V19.1579C31 18.6658 30.5974 18.2632 30.1053 18.2632H28.3158V16.4737C28.3158 14.4963 26.7142 12.8947 24.7368 12.8947H23.2337C22.5 12.3132 21.6321 12 20.7105 12ZM20.7105 13.7895C21.4174 13.7895 22.0795 14.1205 22.5 14.6842H24.7368C25.73 14.6842 26.5263 15.4895 26.5263 16.4737H22.9474C21.1579 16.4737 20.5495 17.4847 19.8158 18.8268C19.0821 20.1689 17.5789 20.0526 17.5789 20.0526C16.5858 20.0526 15.7895 19.2563 15.7895 18.2632C15.7895 17.2789 16.5858 16.4737 17.5789 16.4737H18.4737V16.0263C18.4737 14.7916 19.4758 13.7895 20.7105 13.7895ZM27.4211 20.0526H29.2105V25.4211H27.4211V20.0526Z" fill="black" fill-opacity="0.8"/>
<path d="M55.2422 14.7031L59.4258 25.1445L63.6094 14.7031H65.7979V27.5H64.1104V22.5166L64.2686 17.1377L60.0674 27.5H58.7754L54.583 17.1641L54.75 22.5166V27.5H53.0625V14.7031H55.2422ZM74.3936 27.5C74.2998 27.3125 74.2236 26.9785 74.165 26.498C73.4092 27.2832 72.5068 27.6758 71.458 27.6758C70.5205 27.6758 69.75 27.4121 69.1465 26.8848C68.5488 26.3516 68.25 25.6777 68.25 24.8633C68.25 23.873 68.625 23.1055 69.375 22.5605C70.1309 22.0098 71.1914 21.7344 72.5566 21.7344H74.1387V20.9873C74.1387 20.4189 73.9688 19.9678 73.6289 19.6338C73.2891 19.2939 72.7881 19.124 72.126 19.124C71.5459 19.124 71.0596 19.2705 70.667 19.5635C70.2744 19.8564 70.0781 20.2109 70.0781 20.627H68.4434C68.4434 20.1523 68.6104 19.6953 68.9443 19.2559C69.2842 18.8105 69.7412 18.459 70.3154 18.2012C70.8955 17.9434 71.5312 17.8145 72.2227 17.8145C73.3184 17.8145 74.1768 18.0898 74.7979 18.6406C75.4189 19.1855 75.7412 19.9385 75.7646 20.8994V25.2764C75.7646 26.1494 75.876 26.8438 76.0986 27.3594V27.5H74.3936ZM71.6953 26.2607C72.2051 26.2607 72.6885 26.1289 73.1455 25.8652C73.6025 25.6016 73.9336 25.2588 74.1387 24.8369V22.8857H72.8643C70.8721 22.8857 69.876 23.4688 69.876 24.6348C69.876 25.1445 70.0459 25.543 70.3857 25.8301C70.7256 26.1172 71.1621 26.2607 71.6953 26.2607ZM80.0801 27.5H78.4541V14H80.0801V27.5ZM84.457 27.5H82.8311V14H84.457V27.5ZM92.9385 27.5C92.8447 27.3125 92.7686 26.9785 92.71 26.498C91.9541 27.2832 91.0518 27.6758 90.0029 27.6758C89.0654 27.6758 88.2949 27.4121 87.6914 26.8848C87.0938 26.3516 86.7949 25.6777 86.7949 24.8633C86.7949 23.873 87.1699 23.1055 87.9199 22.5605C88.6758 22.0098 89.7363 21.7344 91.1016 21.7344H92.6836V20.9873C92.6836 20.4189 92.5137 19.9678 92.1738 19.6338C91.834 19.2939 91.333 19.124 90.6709 19.124C90.0908 19.124 89.6045 19.2705 89.2119 19.5635C88.8193 19.8564 88.623 20.2109 88.623 20.627H86.9883C86.9883 20.1523 87.1553 19.6953 87.4893 19.2559C87.8291 18.8105 88.2861 18.459 88.8604 18.2012C89.4404 17.9434 90.0762 17.8145 90.7676 17.8145C91.8633 17.8145 92.7217 18.0898 93.3428 18.6406C93.9639 19.1855 94.2861 19.9385 94.3096 20.8994V25.2764C94.3096 26.1494 94.4209 26.8438 94.6436 27.3594V27.5H92.9385ZM90.2402 26.2607C90.75 26.2607 91.2334 26.1289 91.6904 25.8652C92.1475 25.6016 92.4785 25.2588 92.6836 24.8369V22.8857H91.4092C89.417 22.8857 88.4209 23.4688 88.4209 24.6348C88.4209 25.1445 88.5908 25.543 88.9307 25.8301C89.2705 26.1172 89.707 26.2607 90.2402 26.2607ZM102.396 24.9775C102.396 24.5381 102.229 24.1982 101.895 23.958C101.566 23.7119 100.989 23.501 100.163 23.3252C99.3428 23.1494 98.6895 22.9385 98.2031 22.6924C97.7227 22.4463 97.3652 22.1533 97.1309 21.8135C96.9023 21.4736 96.7881 21.0693 96.7881 20.6006C96.7881 19.8213 97.1162 19.1621 97.7725 18.623C98.4346 18.084 99.2783 17.8145 100.304 17.8145C101.382 17.8145 102.255 18.0928 102.923 18.6494C103.597 19.2061 103.934 19.918 103.934 20.7852H102.299C102.299 20.3398 102.108 19.9561 101.728 19.6338C101.353 19.3115 100.878 19.1504 100.304 19.1504C99.7119 19.1504 99.249 19.2793 98.915 19.5371C98.5811 19.7949 98.4141 20.1318 98.4141 20.5479C98.4141 20.9404 98.5693 21.2363 98.8799 21.4355C99.1904 21.6348 99.75 21.8252 100.559 22.0068C101.373 22.1885 102.032 22.4053 102.536 22.6572C103.04 22.9092 103.412 23.2139 103.652 23.5713C103.898 23.9229 104.021 24.3535 104.021 24.8633C104.021 25.7129 103.682 26.3955 103.002 26.9111C102.322 27.4209 101.44 27.6758 100.356 27.6758C99.5947 27.6758 98.9209 27.541 98.335 27.2715C97.749 27.002 97.2891 26.627 96.9551 26.1465C96.627 25.6602 96.4629 25.1357 96.4629 24.5732H98.0889C98.1182 25.1182 98.335 25.5518 98.7393 25.874C99.1494 26.1904 99.6885 26.3486 100.356 26.3486C100.972 26.3486 101.464 26.2256 101.833 25.9795C102.208 25.7275 102.396 25.3936 102.396 24.9775ZM108.794 23.0967L107.774 24.1602V27.5H106.148V14H107.774V22.165L108.645 21.1191L111.606 17.9902H113.584L109.884 21.9629L114.015 27.5H112.107L108.794 23.0967ZM119.033 27.6758C117.744 27.6758 116.695 27.2539 115.887 26.4102C115.078 25.5605 114.674 24.4268 114.674 23.0088V22.71C114.674 21.7666 114.853 20.9258 115.21 20.1875C115.573 19.4434 116.077 18.8633 116.722 18.4473C117.372 18.0254 118.075 17.8145 118.831 17.8145C120.067 17.8145 121.028 18.2217 121.714 19.0361C122.399 19.8506 122.742 21.0166 122.742 22.5342V23.2109H116.3C116.323 24.1484 116.596 24.9072 117.117 25.4873C117.645 26.0615 118.312 26.3486 119.121 26.3486C119.695 26.3486 120.182 26.2314 120.58 25.9971C120.979 25.7627 121.327 25.4521 121.626 25.0654L122.619 25.8389C121.822 27.0635 120.627 27.6758 119.033 27.6758ZM118.831 19.1504C118.175 19.1504 117.624 19.3906 117.179 19.8711C116.733 20.3457 116.458 21.0137 116.353 21.875H121.116V21.752C121.069 20.9258 120.847 20.2871 120.448 19.8359C120.05 19.3789 119.511 19.1504 118.831 19.1504ZM126.398 27.5H124.772V14H126.398V27.5ZM130.775 27.5H129.149V14H130.775V27.5ZM139.257 27.5C139.163 27.3125 139.087 26.9785 139.028 26.498C138.272 27.2832 137.37 27.6758 136.321 27.6758C135.384 27.6758 134.613 27.4121 134.01 26.8848C133.412 26.3516 133.113 25.6777 133.113 24.8633C133.113 23.873 133.488 23.1055 134.238 22.5605C134.994 22.0098 136.055 21.7344 137.42 21.7344H139.002V20.9873C139.002 20.4189 138.832 19.9678 138.492 19.6338C138.152 19.2939 137.651 19.124 136.989 19.124C136.409 19.124 135.923 19.2705 135.53 19.5635C135.138 19.8564 134.941 20.2109 134.941 20.627H133.307C133.307 20.1523 133.474 19.6953 133.808 19.2559C134.147 18.8105 134.604 18.459 135.179 18.2012C135.759 17.9434 136.395 17.8145 137.086 17.8145C138.182 17.8145 139.04 18.0898 139.661 18.6406C140.282 19.1855 140.604 19.9385 140.628 20.8994V25.2764C140.628 26.1494 140.739 26.8438 140.962 27.3594V27.5H139.257ZM136.559 26.2607C137.068 26.2607 137.552 26.1289 138.009 25.8652C138.466 25.6016 138.797 25.2588 139.002 24.8369V22.8857H137.728C135.735 22.8857 134.739 23.4688 134.739 24.6348C134.739 25.1445 134.909 25.543 135.249 25.8301C135.589 26.1172 136.025 26.2607 136.559 26.2607ZM147.773 19.4492C147.527 19.4082 147.261 19.3877 146.974 19.3877C145.907 19.3877 145.184 19.8418 144.803 20.75V27.5H143.177V17.9902H144.759L144.785 19.0889C145.318 18.2393 146.074 17.8145 147.053 17.8145C147.369 17.8145 147.609 17.8555 147.773 17.9375V19.4492ZM151.043 27.5H149.417V17.9902H151.043V27.5ZM149.285 15.4678C149.285 15.2041 149.364 14.9814 149.522 14.7998C149.687 14.6182 149.927 14.5273 150.243 14.5273C150.56 14.5273 150.8 14.6182 150.964 14.7998C151.128 14.9814 151.21 15.2041 151.21 15.4678C151.21 15.7314 151.128 15.9512 150.964 16.127C150.8 16.3027 150.56 16.3906 150.243 16.3906C149.927 16.3906 149.687 16.3027 149.522 16.127C149.364 15.9512 149.285 15.7314 149.285 15.4678Z" fill="black" fill-opacity="0.8"/>
<path d="M79.25 36.5H78.1807L78.8663 37.3206L89.7284 50.3206L90.1255 50.7959L90.5063 50.3075L100.644 37.3075L101.274 36.5H100.25H79.25Z" fill="#C77FD3" stroke="#C77FD3"/>
</g>
<defs>
<filter id="filter0_d" x="0" y="0" width="179.5" height="60.5917" filterUnits="userSpaceOnUse" color-interpolation-filters="sRGB">
<feFlood flood-opacity="0" result="BackgroundImageFix"/>
<feColorMatrix in="SourceAlpha" type="matrix" values="0 0 0 0 0 0 0 0 0 0 0 0 0 0 0 0 0 0 127 0"/>
<feOffset dy="2"/>
<feGaussianBlur stdDeviation="3.5"/>
<feColorMatrix type="matrix" values="0 0 0 0 0 0 0 0 0 0 0 0 0 0 0 0 0 0 0.15 0"/>
<feBlend mode="normal" in2="BackgroundImageFix" result="effect1_dropShadow"/>
<feBlend mode="normal" in="SourceGraphic" in2="effect1_dropShadow" result="shape"/>
</filter>
</defs>
</svg>
