<svg width="202" height="61" viewBox="0 0 202 61" fill="none" xmlns="http://www.w3.org/2000/svg">
<g filter="url(#filter0_d)">
<rect x="7" y="5" width="187.5" height="32" rx="16" fill="#CEC090"/>
<circle cx="23" cy="21" r="16" fill="white" fill-opacity="0.15"/>
<path d="M19.7727 18.9545V17.4091H20.5455V14.3182H19.7727V13.5455L22.8636 12L25.9545 13.5455V14.3182H25.1818V17.4091H25.9545V18.9545H24.9809L20.1127 21.7673L20.5455 18.9545H19.7727ZM23.6364 17.4091V14.3182H22.0909V17.4091H23.6364ZM19 29L19.0309 28.8145L26.0705 24.75L26.4723 27.3618L23.6364 29H19ZM19.8114 23.7223L25.4214 20.5L25.8232 23.1041L19.3323 26.8518L19.8114 23.7223Z" fill="black" fill-opacity="0.8"/>
<path d="M54.9922 22.4902V27.5H53.3047V14.7031H58.0244C59.4248 14.7031 60.5205 15.0605 61.3115 15.7754C62.1084 16.4902 62.5068 17.4365 62.5068 18.6143C62.5068 19.8564 62.1172 20.8145 61.3379 21.4883C60.5645 22.1562 59.4541 22.4902 58.0068 22.4902H54.9922ZM54.9922 21.1104H58.0244C58.9268 21.1104 59.6182 20.8994 60.0986 20.4775C60.5791 20.0498 60.8193 19.4346 60.8193 18.6318C60.8193 17.8701 60.5791 17.2607 60.0986 16.8037C59.6182 16.3467 58.959 16.1094 58.1211 16.0918H54.9922V21.1104ZM70.1709 27.5C70.0771 27.3125 70.001 26.9785 69.9424 26.498C69.1865 27.2832 68.2842 27.6758 67.2354 27.6758C66.2979 27.6758 65.5273 27.4121 64.9238 26.8848C64.3262 26.3516 64.0273 25.6777 64.0273 24.8633C64.0273 23.873 64.4023 23.1055 65.1523 22.5605C65.9082 22.0098 66.9688 21.7344 68.334 21.7344H69.916V20.9873C69.916 20.4189 69.7461 19.9678 69.4062 19.6338C69.0664 19.2939 68.5654 19.124 67.9033 19.124C67.3232 19.124 66.8369 19.2705 66.4443 19.5635C66.0518 19.8564 65.8555 20.2109 65.8555 20.627H64.2207C64.2207 20.1523 64.3877 19.6953 64.7217 19.2559C65.0615 18.8105 65.5186 18.459 66.0928 18.2012C66.6729 17.9434 67.3086 17.8145 68 17.8145C69.0957 17.8145 69.9541 18.0898 70.5752 18.6406C71.1963 19.1855 71.5186 19.9385 71.542 20.8994V25.2764C71.542 26.1494 71.6533 26.8438 71.876 27.3594V27.5H70.1709ZM67.4727 26.2607C67.9824 26.2607 68.4658 26.1289 68.9229 25.8652C69.3799 25.6016 69.7109 25.2588 69.916 24.8369V22.8857H68.6416C66.6494 22.8857 65.6533 23.4688 65.6533 24.6348C65.6533 25.1445 65.8232 25.543 66.1631 25.8301C66.5029 26.1172 66.9395 26.2607 67.4727 26.2607ZM79.6279 24.9775C79.6279 24.5381 79.4609 24.1982 79.127 23.958C78.7988 23.7119 78.2217 23.501 77.3955 23.3252C76.5752 23.1494 75.9219 22.9385 75.4355 22.6924C74.9551 22.4463 74.5977 22.1533 74.3633 21.8135C74.1348 21.4736 74.0205 21.0693 74.0205 20.6006C74.0205 19.8213 74.3486 19.1621 75.0049 18.623C75.667 18.084 76.5107 17.8145 77.5361 17.8145C78.6143 17.8145 79.4873 18.0928 80.1553 18.6494C80.8291 19.2061 81.166 19.918 81.166 20.7852H79.5312C79.5312 20.3398 79.3408 19.9561 78.96 19.6338C78.585 19.3115 78.1104 19.1504 77.5361 19.1504C76.9443 19.1504 76.4814 19.2793 76.1475 19.5371C75.8135 19.7949 75.6465 20.1318 75.6465 20.5479C75.6465 20.9404 75.8018 21.2363 76.1123 21.4355C76.4229 21.6348 76.9824 21.8252 77.791 22.0068C78.6055 22.1885 79.2646 22.4053 79.7686 22.6572C80.2725 22.9092 80.6445 23.2139 80.8848 23.5713C81.1309 23.9229 81.2539 24.3535 81.2539 24.8633C81.2539 25.7129 80.9141 26.3955 80.2344 26.9111C79.5547 27.4209 78.6729 27.6758 77.5889 27.6758C76.8271 27.6758 76.1533 27.541 75.5674 27.2715C74.9814 27.002 74.5215 26.627 74.1875 26.1465C73.8594 25.6602 73.6953 25.1357 73.6953 24.5732H75.3213C75.3506 25.1182 75.5674 25.5518 75.9717 25.874C76.3818 26.1904 76.9209 26.3486 77.5889 26.3486C78.2041 26.3486 78.6963 26.2256 79.0654 25.9795C79.4404 25.7275 79.6279 25.3936 79.6279 24.9775ZM86.0264 23.0967L85.0068 24.1602V27.5H83.3809V14H85.0068V22.165L85.877 21.1191L88.8389 17.9902H90.8164L87.1162 21.9629L91.2471 27.5H89.3398L86.0264 23.0967ZM98.3662 27.5C98.2725 27.3125 98.1963 26.9785 98.1377 26.498C97.3818 27.2832 96.4795 27.6758 95.4307 27.6758C94.4932 27.6758 93.7227 27.4121 93.1191 26.8848C92.5215 26.3516 92.2227 25.6777 92.2227 24.8633C92.2227 23.873 92.5977 23.1055 93.3477 22.5605C94.1035 22.0098 95.1641 21.7344 96.5293 21.7344H98.1113V20.9873C98.1113 20.4189 97.9414 19.9678 97.6016 19.6338C97.2617 19.2939 96.7607 19.124 96.0986 19.124C95.5186 19.124 95.0322 19.2705 94.6396 19.5635C94.2471 19.8564 94.0508 20.2109 94.0508 20.627H92.416C92.416 20.1523 92.583 19.6953 92.917 19.2559C93.2568 18.8105 93.7139 18.459 94.2881 18.2012C94.8682 17.9434 95.5039 17.8145 96.1953 17.8145C97.291 17.8145 98.1494 18.0898 98.7705 18.6406C99.3916 19.1855 99.7139 19.9385 99.7373 20.8994V25.2764C99.7373 26.1494 99.8486 26.8438 100.071 27.3594V27.5H98.3662ZM95.668 26.2607C96.1777 26.2607 96.6611 26.1289 97.1182 25.8652C97.5752 25.6016 97.9062 25.2588 98.1113 24.8369V22.8857H96.8369C94.8447 22.8857 93.8486 23.4688 93.8486 24.6348C93.8486 25.1445 94.0186 25.543 94.3584 25.8301C94.6982 26.1172 95.1348 26.2607 95.668 26.2607ZM104.94 23.0967L103.921 24.1602V27.5H102.295V14H103.921V22.165L104.791 21.1191L107.753 17.9902H109.73L106.03 21.9629L110.161 27.5H108.254L104.94 23.0967ZM117.28 27.5C117.187 27.3125 117.11 26.9785 117.052 26.498C116.296 27.2832 115.394 27.6758 114.345 27.6758C113.407 27.6758 112.637 27.4121 112.033 26.8848C111.436 26.3516 111.137 25.6777 111.137 24.8633C111.137 23.873 111.512 23.1055 112.262 22.5605C113.018 22.0098 114.078 21.7344 115.443 21.7344H117.025V20.9873C117.025 20.4189 116.855 19.9678 116.516 19.6338C116.176 19.2939 115.675 19.124 115.013 19.124C114.433 19.124 113.946 19.2705 113.554 19.5635C113.161 19.8564 112.965 20.2109 112.965 20.627H111.33C111.33 20.1523 111.497 19.6953 111.831 19.2559C112.171 18.8105 112.628 18.459 113.202 18.2012C113.782 17.9434 114.418 17.8145 115.109 17.8145C116.205 17.8145 117.063 18.0898 117.685 18.6406C118.306 19.1855 118.628 19.9385 118.651 20.8994V25.2764C118.651 26.1494 118.763 26.8438 118.985 27.3594V27.5H117.28ZM114.582 26.2607C115.092 26.2607 115.575 26.1289 116.032 25.8652C116.489 25.6016 116.82 25.2588 117.025 24.8369V22.8857H115.751C113.759 22.8857 112.763 23.4688 112.763 24.6348C112.763 25.1445 112.933 25.543 113.272 25.8301C113.612 26.1172 114.049 26.2607 114.582 26.2607ZM127.071 26.5596C126.438 27.3037 125.51 27.6758 124.285 27.6758C123.271 27.6758 122.498 27.3828 121.965 26.7969C121.438 26.2051 121.171 25.332 121.165 24.1777V17.9902H122.791V24.1338C122.791 25.5752 123.377 26.2959 124.549 26.2959C125.791 26.2959 126.617 25.833 127.027 24.9072V17.9902H128.653V27.5H127.106L127.071 26.5596ZM139.165 22.8506C139.165 24.2979 138.834 25.4639 138.172 26.3486C137.51 27.2334 136.613 27.6758 135.482 27.6758C134.328 27.6758 133.42 27.3096 132.758 26.5771V31.1562H131.132V17.9902H132.617L132.696 19.0449C133.358 18.2246 134.278 17.8145 135.456 17.8145C136.599 17.8145 137.501 18.2451 138.163 19.1064C138.831 19.9678 139.165 21.166 139.165 22.7012V22.8506ZM137.539 22.666C137.539 21.5938 137.311 20.7471 136.854 20.126C136.396 19.5049 135.77 19.1943 134.973 19.1943C133.988 19.1943 133.25 19.6309 132.758 20.5039V25.0479C133.244 25.915 133.988 26.3486 134.99 26.3486C135.77 26.3486 136.388 26.041 136.845 25.4258C137.308 24.8047 137.539 23.8848 137.539 22.666ZM147.11 26.5596C146.478 27.3037 145.549 27.6758 144.324 27.6758C143.311 27.6758 142.537 27.3828 142.004 26.7969C141.477 26.2051 141.21 25.332 141.204 24.1777V17.9902H142.83V24.1338C142.83 25.5752 143.416 26.2959 144.588 26.2959C145.83 26.2959 146.656 25.833 147.066 24.9072V17.9902H148.692V27.5H147.146L147.11 26.5596ZM152.709 17.9902L152.762 19.1855C153.488 18.2715 154.438 17.8145 155.609 17.8145C157.619 17.8145 158.633 18.9482 158.65 21.2158V27.5H157.024V21.207C157.019 20.5215 156.86 20.0146 156.55 19.6865C156.245 19.3584 155.768 19.1943 155.117 19.1943C154.59 19.1943 154.127 19.335 153.729 19.6162C153.33 19.8975 153.02 20.2666 152.797 20.7236V27.5H151.171V17.9902H152.709ZM162.641 17.9902L162.693 19.1855C163.42 18.2715 164.369 17.8145 165.541 17.8145C167.551 17.8145 168.564 18.9482 168.582 21.2158V27.5H166.956V21.207C166.95 20.5215 166.792 20.0146 166.481 19.6865C166.177 19.3584 165.699 19.1943 165.049 19.1943C164.521 19.1943 164.059 19.335 163.66 19.6162C163.262 19.8975 162.951 20.2666 162.729 20.7236V27.5H161.103V17.9902H162.641ZM172.801 27.5H171.175V17.9902H172.801V27.5ZM171.043 15.4678C171.043 15.2041 171.122 14.9814 171.28 14.7998C171.444 14.6182 171.685 14.5273 172.001 14.5273C172.317 14.5273 172.558 14.6182 172.722 14.7998C172.886 14.9814 172.968 15.2041 172.968 15.4678C172.968 15.7314 172.886 15.9512 172.722 16.127C172.558 16.3027 172.317 16.3906 172.001 16.3906C171.685 16.3906 171.444 16.3027 171.28 16.127C171.122 15.9512 171.043 15.7314 171.043 15.4678Z" fill="black" fill-opacity="0.8"/>
<path d="M111.644 37.3075L112.274 36.5H111.25H90.25H89.1807L89.8663 37.3206L100.728 50.3206L101.125 50.7959L101.506 50.3075L111.644 37.3075Z" fill="#CEC090" stroke="#CEC090"/>
</g>
<defs>
<filter id="filter0_d" x="0" y="0" width="201.5" height="60.5917" filterUnits="userSpaceOnUse" color-interpolation-filters="sRGB">
<feFlood flood-opacity="0" result="BackgroundImageFix"/>
<feColorMatrix in="SourceAlpha" type="matrix" values="0 0 0 0 0 0 0 0 0 0 0 0 0 0 0 0 0 0 127 0"/>
<feOffset dy="2"/>
<feGaussianBlur stdDeviation="3.5"/>
<feColorMatrix type="matrix" values="0 0 0 0 0 0 0 0 0 0 0 0 0 0 0 0 0 0 0.15 0"/>
<feBlend mode="normal" in2="BackgroundImageFix" result="effect1_dropShadow"/>
<feBlend mode="normal" in="SourceGraphic" in2="effect1_dropShadow" result="shape"/>
</filter>
</defs>
</svg>
