<svg width="177" height="61" viewBox="0 0 177 61" fill="none" xmlns="http://www.w3.org/2000/svg">
<g filter="url(#filter0_d)">
<rect x="7" y="5" width="162.5" height="32" rx="16" fill="#7FD3B0"/>
<circle cx="23" cy="21" r="16" fill="white" fill-opacity="0.15"/>
<path d="M24.3655 12L23.472 12.8934L24.7956 14.217C24.9776 14.4238 25.0686 14.6637 25.0686 14.9367C25.0686 15.2097 24.9776 15.4662 24.7956 15.6482L21.8589 18.6346L22.6861 19.528L25.6891 16.5416C26.1275 16.0535 26.3426 15.5158 26.3426 14.9367C26.3426 14.3577 26.1275 13.8117 25.6891 13.3236L24.3655 12ZM21.073 13.671L20.1796 14.5645L20.6842 15.0277C20.8662 15.2097 20.9572 15.4579 20.9572 15.764C20.9572 16.0701 20.8662 16.3182 20.6842 16.5002L20.1796 16.9635L21.073 17.8569L21.5363 17.3523C21.9747 16.8642 22.1981 16.3348 22.1981 15.764C22.1981 15.1684 21.9747 14.6307 21.5363 14.1343L21.073 13.671ZM29.7178 14.9864C29.147 14.9864 28.6175 15.2097 28.1294 15.6482L23.472 20.3139L24.3655 21.1411L28.9815 16.5416C29.1883 16.3348 29.4365 16.2273 29.7178 16.2273C29.999 16.2273 30.2472 16.3348 30.454 16.5416L30.9586 17.0462L31.8107 16.1528L31.3474 15.6482C30.8594 15.2097 30.3134 14.9864 29.7178 14.9864ZM18.1363 17.4185L14 29L25.5815 24.8637L18.1363 17.4185ZM28.0633 19.9499C27.4842 19.9499 26.9547 20.1732 26.4584 20.6117L25.1431 21.927L26.0365 22.8204L27.3518 21.5051C27.5586 21.2983 27.7903 21.1908 28.0633 21.1908C28.3363 21.1908 28.5844 21.2983 28.7912 21.5051L30.1314 22.8204L31 21.9684L29.6764 20.6117C29.1883 20.1732 28.6423 19.9499 28.0633 19.9499Z" fill="black" fill-opacity="0.8"/>
<path d="M61.9336 16.0918H57.8203V27.5H56.1416V16.0918H52.0371V14.7031H61.9336V16.0918ZM66.6445 27.6758C65.3555 27.6758 64.3066 27.2539 63.498 26.4102C62.6895 25.5605 62.2852 24.4268 62.2852 23.0088V22.71C62.2852 21.7666 62.4639 20.9258 62.8213 20.1875C63.1846 19.4434 63.6885 18.8633 64.333 18.4473C64.9834 18.0254 65.6865 17.8145 66.4424 17.8145C67.6787 17.8145 68.6396 18.2217 69.3252 19.0361C70.0107 19.8506 70.3535 21.0166 70.3535 22.5342V23.2109H63.9111C63.9346 24.1484 64.207 24.9072 64.7285 25.4873C65.2559 26.0615 65.9238 26.3486 66.7324 26.3486C67.3066 26.3486 67.793 26.2314 68.1914 25.9971C68.5898 25.7627 68.9385 25.4521 69.2373 25.0654L70.2305 25.8389C69.4336 27.0635 68.2383 27.6758 66.6445 27.6758ZM66.4424 19.1504C65.7861 19.1504 65.2354 19.3906 64.79 19.8711C64.3447 20.3457 64.0693 21.0137 63.9639 21.875H68.7275V21.752C68.6807 20.9258 68.458 20.2871 68.0596 19.8359C67.6611 19.3789 67.1221 19.1504 66.4424 19.1504ZM76.1895 27.6758C74.9004 27.6758 73.8516 27.2539 73.043 26.4102C72.2344 25.5605 71.8301 24.4268 71.8301 23.0088V22.71C71.8301 21.7666 72.0088 20.9258 72.3662 20.1875C72.7295 19.4434 73.2334 18.8633 73.8779 18.4473C74.5283 18.0254 75.2314 17.8145 75.9873 17.8145C77.2236 17.8145 78.1846 18.2217 78.8701 19.0361C79.5557 19.8506 79.8984 21.0166 79.8984 22.5342V23.2109H73.4561C73.4795 24.1484 73.752 24.9072 74.2734 25.4873C74.8008 26.0615 75.4688 26.3486 76.2773 26.3486C76.8516 26.3486 77.3379 26.2314 77.7363 25.9971C78.1348 25.7627 78.4834 25.4521 78.7822 25.0654L79.7754 25.8389C78.9785 27.0635 77.7832 27.6758 76.1895 27.6758ZM75.9873 19.1504C75.3311 19.1504 74.7803 19.3906 74.335 19.8711C73.8896 20.3457 73.6143 21.0137 73.5088 21.875H78.2725V21.752C78.2256 20.9258 78.0029 20.2871 77.6045 19.8359C77.2061 19.3789 76.667 19.1504 75.9873 19.1504ZM84.4424 23.0967L83.4229 24.1602V27.5H81.7969V14H83.4229V22.165L84.293 21.1191L87.2549 17.9902H89.2324L85.5322 21.9629L89.6631 27.5H87.7559L84.4424 23.0967ZM93.5654 23.0967L92.5459 24.1602V27.5H90.9199V14H92.5459V22.165L93.416 21.1191L96.3779 17.9902H98.3555L94.6553 21.9629L98.7861 27.5H96.8789L93.5654 23.0967ZM105.905 27.5C105.812 27.3125 105.735 26.9785 105.677 26.498C104.921 27.2832 104.019 27.6758 102.97 27.6758C102.032 27.6758 101.262 27.4121 100.658 26.8848C100.061 26.3516 99.7617 25.6777 99.7617 24.8633C99.7617 23.873 100.137 23.1055 100.887 22.5605C101.643 22.0098 102.703 21.7344 104.068 21.7344H105.65V20.9873C105.65 20.4189 105.48 19.9678 105.141 19.6338C104.801 19.2939 104.3 19.124 103.638 19.124C103.058 19.124 102.571 19.2705 102.179 19.5635C101.786 19.8564 101.59 20.2109 101.59 20.627H99.9551C99.9551 20.1523 100.122 19.6953 100.456 19.2559C100.796 18.8105 101.253 18.459 101.827 18.2012C102.407 17.9434 103.043 17.8145 103.734 17.8145C104.83 17.8145 105.688 18.0898 106.31 18.6406C106.931 19.1855 107.253 19.9385 107.276 20.8994V25.2764C107.276 26.1494 107.388 26.8438 107.61 27.3594V27.5H105.905ZM103.207 26.2607C103.717 26.2607 104.2 26.1289 104.657 25.8652C105.114 25.6016 105.445 25.2588 105.65 24.8369V22.8857H104.376C102.384 22.8857 101.388 23.4688 101.388 24.6348C101.388 25.1445 101.558 25.543 101.897 25.8301C102.237 26.1172 102.674 26.2607 103.207 26.2607ZM114.422 19.4492C114.176 19.4082 113.909 19.3877 113.622 19.3877C112.556 19.3877 111.832 19.8418 111.451 20.75V27.5H109.825V17.9902H111.407L111.434 19.0889C111.967 18.2393 112.723 17.8145 113.701 17.8145C114.018 17.8145 114.258 17.8555 114.422 17.9375V19.4492ZM117.691 27.5H116.065V17.9902H117.691V27.5ZM115.934 15.4678C115.934 15.2041 116.013 14.9814 116.171 14.7998C116.335 14.6182 116.575 14.5273 116.892 14.5273C117.208 14.5273 117.448 14.6182 117.612 14.7998C117.776 14.9814 117.858 15.2041 117.858 15.4678C117.858 15.7314 117.776 15.9512 117.612 16.127C117.448 16.3027 117.208 16.3906 116.892 16.3906C116.575 16.3906 116.335 16.3027 116.171 16.127C116.013 15.9512 115.934 15.7314 115.934 15.4678ZM122.508 15.6875V17.9902H124.283V19.2471H122.508V25.1445C122.508 25.5254 122.587 25.8125 122.745 26.0059C122.903 26.1934 123.173 26.2871 123.554 26.2871C123.741 26.2871 123.999 26.252 124.327 26.1816V27.5C123.899 27.6172 123.483 27.6758 123.079 27.6758C122.353 27.6758 121.805 27.4561 121.436 27.0166C121.066 26.5771 120.882 25.9531 120.882 25.1445V19.2471H119.15V17.9902H120.882V15.6875H122.508ZM132.062 27.5C131.968 27.3125 131.892 26.9785 131.833 26.498C131.077 27.2832 130.175 27.6758 129.126 27.6758C128.188 27.6758 127.418 27.4121 126.814 26.8848C126.217 26.3516 125.918 25.6777 125.918 24.8633C125.918 23.873 126.293 23.1055 127.043 22.5605C127.799 22.0098 128.859 21.7344 130.225 21.7344H131.807V20.9873C131.807 20.4189 131.637 19.9678 131.297 19.6338C130.957 19.2939 130.456 19.124 129.794 19.124C129.214 19.124 128.728 19.2705 128.335 19.5635C127.942 19.8564 127.746 20.2109 127.746 20.627H126.111C126.111 20.1523 126.278 19.6953 126.612 19.2559C126.952 18.8105 127.409 18.459 127.983 18.2012C128.563 17.9434 129.199 17.8145 129.891 17.8145C130.986 17.8145 131.845 18.0898 132.466 18.6406C133.087 19.1855 133.409 19.9385 133.433 20.8994V25.2764C133.433 26.1494 133.544 26.8438 133.767 27.3594V27.5H132.062ZM129.363 26.2607C129.873 26.2607 130.356 26.1289 130.813 25.8652C131.271 25.6016 131.602 25.2588 131.807 24.8369V22.8857H130.532C128.54 22.8857 127.544 23.4688 127.544 24.6348C127.544 25.1445 127.714 25.543 128.054 25.8301C128.394 26.1172 128.83 26.2607 129.363 26.2607ZM137.748 27.5H136.122V14H137.748V27.5ZM139.928 22.6572C139.928 21.7256 140.109 20.8877 140.473 20.1436C140.842 19.3994 141.352 18.8252 142.002 18.4209C142.658 18.0166 143.405 17.8145 144.243 17.8145C145.538 17.8145 146.584 18.2627 147.381 19.1592C148.184 20.0557 148.585 21.248 148.585 22.7363V22.8506C148.585 23.7764 148.406 24.6084 148.049 25.3467C147.697 26.0791 147.19 26.6504 146.528 27.0605C145.872 27.4707 145.116 27.6758 144.261 27.6758C142.972 27.6758 141.926 27.2275 141.123 26.3311C140.326 25.4346 139.928 24.248 139.928 22.7715V22.6572ZM141.562 22.8506C141.562 23.9053 141.806 24.752 142.292 25.3906C142.784 26.0293 143.44 26.3486 144.261 26.3486C145.087 26.3486 145.743 26.0264 146.229 25.3818C146.716 24.7314 146.959 23.8232 146.959 22.6572C146.959 21.6143 146.71 20.7705 146.212 20.126C145.72 19.4756 145.063 19.1504 144.243 19.1504C143.44 19.1504 142.793 19.4697 142.301 20.1084C141.809 20.7471 141.562 21.6611 141.562 22.8506Z" fill="black" fill-opacity="0.8"/>
<path d="M99.1443 37.3075L99.774 36.5H98.75H77.75H76.6807L77.3663 37.3206L88.2284 50.3206L88.6255 50.7959L89.0063 50.3075L99.1443 37.3075Z" fill="#7FD3B0" stroke="#7FD3B0"/>
</g>
<defs>
<filter id="filter0_d" x="0" y="0" width="176.5" height="60.5917" filterUnits="userSpaceOnUse" color-interpolation-filters="sRGB">
<feFlood flood-opacity="0" result="BackgroundImageFix"/>
<feColorMatrix in="SourceAlpha" type="matrix" values="0 0 0 0 0 0 0 0 0 0 0 0 0 0 0 0 0 0 127 0"/>
<feOffset dy="2"/>
<feGaussianBlur stdDeviation="3.5"/>
<feColorMatrix type="matrix" values="0 0 0 0 0 0 0 0 0 0 0 0 0 0 0 0 0 0 0.15 0"/>
<feBlend mode="normal" in2="BackgroundImageFix" result="effect1_dropShadow"/>
<feBlend mode="normal" in="SourceGraphic" in2="effect1_dropShadow" result="shape"/>
</filter>
</defs>
</svg>
