<svg width="162" height="61" viewBox="0 0 162 61" fill="none" xmlns="http://www.w3.org/2000/svg">
<g filter="url(#filter0_d)">
<rect x="7" y="5" width="147.5" height="32" rx="16" fill="#CEC090"/>
<circle cx="23" cy="21" r="16" fill="white" fill-opacity="0.15"/>
<path d="M19.7727 18.9545V17.4091H20.5455V14.3182H19.7727V13.5455L22.8636 12L25.9545 13.5455V14.3182H25.1818V17.4091H25.9545V18.9545H24.9809L20.1127 21.7673L20.5455 18.9545H19.7727ZM23.6364 17.4091V14.3182H22.0909V17.4091H23.6364ZM19 29L19.0309 28.8145L26.0705 24.75L26.4723 27.3618L23.6364 29H19ZM19.8114 23.7223L25.4214 20.5L25.8232 23.1041L19.3323 26.8518L19.8114 23.7223Z" fill="black" fill-opacity="0.8"/>
<path d="M62.2559 16.0918H58.1426V27.5H56.4639V16.0918H52.3594V14.7031H62.2559V16.0918ZM62.5898 22.6572C62.5898 21.7256 62.7715 20.8877 63.1348 20.1436C63.5039 19.3994 64.0137 18.8252 64.6641 18.4209C65.3203 18.0166 66.0674 17.8145 66.9053 17.8145C68.2002 17.8145 69.2461 18.2627 70.043 19.1592C70.8457 20.0557 71.2471 21.248 71.2471 22.7363V22.8506C71.2471 23.7764 71.0684 24.6084 70.7109 25.3467C70.3594 26.0791 69.8525 26.6504 69.1904 27.0605C68.5342 27.4707 67.7783 27.6758 66.9229 27.6758C65.6338 27.6758 64.5879 27.2275 63.7852 26.3311C62.9883 25.4346 62.5898 24.248 62.5898 22.7715V22.6572ZM64.2246 22.8506C64.2246 23.9053 64.4678 24.752 64.9541 25.3906C65.4463 26.0293 66.1025 26.3486 66.9229 26.3486C67.749 26.3486 68.4053 26.0264 68.8916 25.3818C69.3779 24.7314 69.6211 23.8232 69.6211 22.6572C69.6211 21.6143 69.3721 20.7705 68.874 20.126C68.3818 19.4756 67.7256 19.1504 66.9053 19.1504C66.1025 19.1504 65.4551 19.4697 64.9629 20.1084C64.4707 20.7471 64.2246 21.6611 64.2246 22.8506ZM77.8828 19.4492C77.6367 19.4082 77.3701 19.3877 77.083 19.3877C76.0166 19.3877 75.293 19.8418 74.9121 20.75V27.5H73.2861V17.9902H74.8682L74.8945 19.0889C75.4277 18.2393 76.1836 17.8145 77.1621 17.8145C77.4785 17.8145 77.7188 17.8555 77.8828 17.9375V19.4492ZM81.1523 27.5H79.5264V17.9902H81.1523V27.5ZM79.3945 15.4678C79.3945 15.2041 79.4736 14.9814 79.6318 14.7998C79.7959 14.6182 80.0361 14.5273 80.3525 14.5273C80.6689 14.5273 80.9092 14.6182 81.0732 14.7998C81.2373 14.9814 81.3193 15.2041 81.3193 15.4678C81.3193 15.7314 81.2373 15.9512 81.0732 16.127C80.9092 16.3027 80.6689 16.3906 80.3525 16.3906C80.0361 16.3906 79.7959 16.3027 79.6318 16.127C79.4736 15.9512 79.3945 15.7314 79.3945 15.4678ZM91.7959 22.8506C91.7959 24.2979 91.4648 25.4639 90.8027 26.3486C90.1406 27.2334 89.2441 27.6758 88.1133 27.6758C86.959 27.6758 86.0508 27.3096 85.3887 26.5771V31.1562H83.7627V17.9902H85.248L85.3271 19.0449C85.9893 18.2246 86.9092 17.8145 88.0869 17.8145C89.2295 17.8145 90.1318 18.2451 90.7939 19.1064C91.4619 19.9678 91.7959 21.166 91.7959 22.7012V22.8506ZM90.1699 22.666C90.1699 21.5938 89.9414 20.7471 89.4844 20.126C89.0273 19.5049 88.4004 19.1943 87.6035 19.1943C86.6191 19.1943 85.8809 19.6309 85.3887 20.5039V25.0479C85.875 25.915 86.6191 26.3486 87.6211 26.3486C88.4004 26.3486 89.0186 26.041 89.4756 25.4258C89.9385 24.8047 90.1699 23.8848 90.1699 22.666ZM93.4395 22.6572C93.4395 21.7256 93.6211 20.8877 93.9844 20.1436C94.3535 19.3994 94.8633 18.8252 95.5137 18.4209C96.1699 18.0166 96.917 17.8145 97.7549 17.8145C99.0498 17.8145 100.096 18.2627 100.893 19.1592C101.695 20.0557 102.097 21.248 102.097 22.7363V22.8506C102.097 23.7764 101.918 24.6084 101.561 25.3467C101.209 26.0791 100.702 26.6504 100.04 27.0605C99.3838 27.4707 98.6279 27.6758 97.7725 27.6758C96.4834 27.6758 95.4375 27.2275 94.6348 26.3311C93.8379 25.4346 93.4395 24.248 93.4395 22.7715V22.6572ZM95.0742 22.8506C95.0742 23.9053 95.3174 24.752 95.8037 25.3906C96.2959 26.0293 96.9521 26.3486 97.7725 26.3486C98.5986 26.3486 99.2549 26.0264 99.7412 25.3818C100.228 24.7314 100.471 23.8232 100.471 22.6572C100.471 21.6143 100.222 20.7705 99.7236 20.126C99.2314 19.4756 98.5752 19.1504 97.7549 19.1504C96.9521 19.1504 96.3047 19.4697 95.8125 20.1084C95.3203 20.7471 95.0742 21.6611 95.0742 22.8506ZM105.902 27.5H104.276V14H105.902V27.5ZM110.279 27.5H108.653V14H110.279V27.5ZM114.656 27.5H113.03V17.9902H114.656V27.5ZM112.898 15.4678C112.898 15.2041 112.978 14.9814 113.136 14.7998C113.3 14.6182 113.54 14.5273 113.856 14.5273C114.173 14.5273 114.413 14.6182 114.577 14.7998C114.741 14.9814 114.823 15.2041 114.823 15.4678C114.823 15.7314 114.741 15.9512 114.577 16.127C114.413 16.3027 114.173 16.3906 113.856 16.3906C113.54 16.3906 113.3 16.3027 113.136 16.127C112.978 15.9512 112.898 15.7314 112.898 15.4678ZM119.033 27.5H117.407V17.9902H119.033V27.5ZM117.275 15.4678C117.275 15.2041 117.354 14.9814 117.513 14.7998C117.677 14.6182 117.917 14.5273 118.233 14.5273C118.55 14.5273 118.79 14.6182 118.954 14.7998C119.118 14.9814 119.2 15.2041 119.2 15.4678C119.2 15.7314 119.118 15.9512 118.954 16.127C118.79 16.3027 118.55 16.3906 118.233 16.3906C117.917 16.3906 117.677 16.3027 117.513 16.127C117.354 15.9512 117.275 15.7314 117.275 15.4678ZM127.181 24.9775C127.181 24.5381 127.014 24.1982 126.68 23.958C126.352 23.7119 125.774 23.501 124.948 23.3252C124.128 23.1494 123.475 22.9385 122.988 22.6924C122.508 22.4463 122.15 22.1533 121.916 21.8135C121.688 21.4736 121.573 21.0693 121.573 20.6006C121.573 19.8213 121.901 19.1621 122.558 18.623C123.22 18.084 124.063 17.8145 125.089 17.8145C126.167 17.8145 127.04 18.0928 127.708 18.6494C128.382 19.2061 128.719 19.918 128.719 20.7852H127.084C127.084 20.3398 126.894 19.9561 126.513 19.6338C126.138 19.3115 125.663 19.1504 125.089 19.1504C124.497 19.1504 124.034 19.2793 123.7 19.5371C123.366 19.7949 123.199 20.1318 123.199 20.5479C123.199 20.9404 123.354 21.2363 123.665 21.4355C123.976 21.6348 124.535 21.8252 125.344 22.0068C126.158 22.1885 126.817 22.4053 127.321 22.6572C127.825 22.9092 128.197 23.2139 128.438 23.5713C128.684 23.9229 128.807 24.3535 128.807 24.8633C128.807 25.7129 128.467 26.3955 127.787 26.9111C127.107 27.4209 126.226 27.6758 125.142 27.6758C124.38 27.6758 123.706 27.541 123.12 27.2715C122.534 27.002 122.074 26.627 121.74 26.1465C121.412 25.6602 121.248 25.1357 121.248 24.5732H122.874C122.903 25.1182 123.12 25.5518 123.524 25.874C123.935 26.1904 124.474 26.3486 125.142 26.3486C125.757 26.3486 126.249 26.2256 126.618 25.9795C126.993 25.7275 127.181 25.3936 127.181 24.9775ZM132.691 27.5H131.065V17.9902H132.691V27.5ZM130.934 15.4678C130.934 15.2041 131.013 14.9814 131.171 14.7998C131.335 14.6182 131.575 14.5273 131.892 14.5273C132.208 14.5273 132.448 14.6182 132.612 14.7998C132.776 14.9814 132.858 15.2041 132.858 15.4678C132.858 15.7314 132.776 15.9512 132.612 16.127C132.448 16.3027 132.208 16.3906 131.892 16.3906C131.575 16.3906 131.335 16.3027 131.171 16.127C131.013 15.9512 130.934 15.7314 130.934 15.4678Z" fill="black" fill-opacity="0.8"/>
<path d="M91.6443 37.3075L92.274 36.5H91.25H70.25H69.1807L69.8663 37.3206L80.7284 50.3206L81.1255 50.7959L81.5063 50.3075L91.6443 37.3075Z" fill="#CEC090" stroke="#CEC090"/>
</g>
<defs>
<filter id="filter0_d" x="0" y="0" width="161.5" height="60.5917" filterUnits="userSpaceOnUse" color-interpolation-filters="sRGB">
<feFlood flood-opacity="0" result="BackgroundImageFix"/>
<feColorMatrix in="SourceAlpha" type="matrix" values="0 0 0 0 0 0 0 0 0 0 0 0 0 0 0 0 0 0 127 0"/>
<feOffset dy="2"/>
<feGaussianBlur stdDeviation="3.5"/>
<feColorMatrix type="matrix" values="0 0 0 0 0 0 0 0 0 0 0 0 0 0 0 0 0 0 0.15 0"/>
<feBlend mode="normal" in2="BackgroundImageFix" result="effect1_dropShadow"/>
<feBlend mode="normal" in="SourceGraphic" in2="effect1_dropShadow" result="shape"/>
</filter>
</defs>
</svg>
