<svg width="139" height="61" viewBox="0 0 139 61" fill="none" xmlns="http://www.w3.org/2000/svg">
<g filter="url(#filter0_d)">
<rect x="7" y="5" width="124.5" height="32" rx="16" fill="#50AAFF"/>
<circle cx="23" cy="21" r="16" fill="white" fill-opacity="0.15"/>
<path d="M23.3889 13L13 18.6667L23.3889 24.3333L31.8889 19.6961V26.2222H33.7778V18.6667L23.3889 13ZM16.7778 22.6144V26.3922L23.3889 30L30 26.3922V22.6144L23.3889 26.2222L16.7778 22.6144Z" fill="black" fill-opacity="0.8"/>
<path d="M55.0713 26.1201H61.1357V27.5H53.375V14.7031H55.0713V26.1201ZM64.5723 27.5H62.9463V17.9902H64.5723V27.5ZM62.8145 15.4678C62.8145 15.2041 62.8936 14.9814 63.0518 14.7998C63.2158 14.6182 63.4561 14.5273 63.7725 14.5273C64.0889 14.5273 64.3291 14.6182 64.4932 14.7998C64.6572 14.9814 64.7393 15.2041 64.7393 15.4678C64.7393 15.7314 64.6572 15.9512 64.4932 16.127C64.3291 16.3027 64.0889 16.3906 63.7725 16.3906C63.4561 16.3906 63.2158 16.3027 63.0518 16.127C62.8936 15.9512 62.8145 15.7314 62.8145 15.4678ZM75.2158 22.8506C75.2158 24.2979 74.8848 25.4639 74.2227 26.3486C73.5605 27.2334 72.6641 27.6758 71.5332 27.6758C70.3789 27.6758 69.4707 27.3096 68.8086 26.5771V31.1562H67.1826V17.9902H68.668L68.7471 19.0449C69.4092 18.2246 70.3291 17.8145 71.5068 17.8145C72.6494 17.8145 73.5518 18.2451 74.2139 19.1064C74.8818 19.9678 75.2158 21.166 75.2158 22.7012V22.8506ZM73.5898 22.666C73.5898 21.5938 73.3613 20.7471 72.9043 20.126C72.4473 19.5049 71.8203 19.1943 71.0234 19.1943C70.0391 19.1943 69.3008 19.6309 68.8086 20.5039V25.0479C69.2949 25.915 70.0391 26.3486 71.041 26.3486C71.8203 26.3486 72.4385 26.041 72.8955 25.4258C73.3584 24.8047 73.5898 23.8848 73.5898 22.666ZM83.1611 27.5C83.0674 27.3125 82.9912 26.9785 82.9326 26.498C82.1768 27.2832 81.2744 27.6758 80.2256 27.6758C79.2881 27.6758 78.5176 27.4121 77.9141 26.8848C77.3164 26.3516 77.0176 25.6777 77.0176 24.8633C77.0176 23.873 77.3926 23.1055 78.1426 22.5605C78.8984 22.0098 79.959 21.7344 81.3242 21.7344H82.9062V20.9873C82.9062 20.4189 82.7363 19.9678 82.3965 19.6338C82.0566 19.2939 81.5557 19.124 80.8936 19.124C80.3135 19.124 79.8271 19.2705 79.4346 19.5635C79.042 19.8564 78.8457 20.2109 78.8457 20.627H77.2109C77.2109 20.1523 77.3779 19.6953 77.7119 19.2559C78.0518 18.8105 78.5088 18.459 79.083 18.2012C79.6631 17.9434 80.2988 17.8145 80.9902 17.8145C82.0859 17.8145 82.9443 18.0898 83.5654 18.6406C84.1865 19.1855 84.5088 19.9385 84.5322 20.8994V25.2764C84.5322 26.1494 84.6436 26.8438 84.8662 27.3594V27.5H83.1611ZM80.4629 26.2607C80.9727 26.2607 81.4561 26.1289 81.9131 25.8652C82.3701 25.6016 82.7012 25.2588 82.9062 24.8369V22.8857H81.6318C79.6396 22.8857 78.6436 23.4688 78.6436 24.6348C78.6436 25.1445 78.8135 25.543 79.1533 25.8301C79.4932 26.1172 79.9297 26.2607 80.4629 26.2607ZM92.6182 24.9775C92.6182 24.5381 92.4512 24.1982 92.1172 23.958C91.7891 23.7119 91.2119 23.501 90.3857 23.3252C89.5654 23.1494 88.9121 22.9385 88.4258 22.6924C87.9453 22.4463 87.5879 22.1533 87.3535 21.8135C87.125 21.4736 87.0107 21.0693 87.0107 20.6006C87.0107 19.8213 87.3389 19.1621 87.9951 18.623C88.6572 18.084 89.501 17.8145 90.5264 17.8145C91.6045 17.8145 92.4775 18.0928 93.1455 18.6494C93.8193 19.2061 94.1562 19.918 94.1562 20.7852H92.5215C92.5215 20.3398 92.3311 19.9561 91.9502 19.6338C91.5752 19.3115 91.1006 19.1504 90.5264 19.1504C89.9346 19.1504 89.4717 19.2793 89.1377 19.5371C88.8037 19.7949 88.6367 20.1318 88.6367 20.5479C88.6367 20.9404 88.792 21.2363 89.1025 21.4355C89.4131 21.6348 89.9727 21.8252 90.7812 22.0068C91.5957 22.1885 92.2549 22.4053 92.7588 22.6572C93.2627 22.9092 93.6348 23.2139 93.875 23.5713C94.1211 23.9229 94.2441 24.3535 94.2441 24.8633C94.2441 25.7129 93.9043 26.3955 93.2246 26.9111C92.5449 27.4209 91.6631 27.6758 90.5791 27.6758C89.8174 27.6758 89.1436 27.541 88.5576 27.2715C87.9717 27.002 87.5117 26.627 87.1777 26.1465C86.8496 25.6602 86.6855 25.1357 86.6855 24.5732H88.3115C88.3408 25.1182 88.5576 25.5518 88.9619 25.874C89.3721 26.1904 89.9111 26.3486 90.5791 26.3486C91.1943 26.3486 91.6865 26.2256 92.0557 25.9795C92.4307 25.7275 92.6182 25.3936 92.6182 24.9775ZM98.5684 15.6875V17.9902H100.344V19.2471H98.5684V25.1445C98.5684 25.5254 98.6475 25.8125 98.8057 26.0059C98.9639 26.1934 99.2334 26.2871 99.6143 26.2871C99.8018 26.2871 100.06 26.252 100.388 26.1816V27.5C99.96 27.6172 99.5439 27.6758 99.1396 27.6758C98.4131 27.6758 97.8652 27.4561 97.4961 27.0166C97.127 26.5771 96.9424 25.9531 96.9424 25.1445V19.2471H95.2109V17.9902H96.9424V15.6875H98.5684ZM101.645 22.6572C101.645 21.7256 101.826 20.8877 102.189 20.1436C102.559 19.3994 103.068 18.8252 103.719 18.4209C104.375 18.0166 105.122 17.8145 105.96 17.8145C107.255 17.8145 108.301 18.2627 109.098 19.1592C109.9 20.0557 110.302 21.248 110.302 22.7363V22.8506C110.302 23.7764 110.123 24.6084 109.766 25.3467C109.414 26.0791 108.907 26.6504 108.245 27.0605C107.589 27.4707 106.833 27.6758 105.978 27.6758C104.688 27.6758 103.643 27.2275 102.84 26.3311C102.043 25.4346 101.645 24.248 101.645 22.7715V22.6572ZM103.279 22.8506C103.279 23.9053 103.522 24.752 104.009 25.3906C104.501 26.0293 105.157 26.3486 105.978 26.3486C106.804 26.3486 107.46 26.0264 107.946 25.3818C108.433 24.7314 108.676 23.8232 108.676 22.6572C108.676 21.6143 108.427 20.7705 107.929 20.126C107.437 19.4756 106.78 19.1504 105.96 19.1504C105.157 19.1504 104.51 19.4697 104.018 20.1084C103.525 20.7471 103.279 21.6611 103.279 22.8506Z" fill="black" fill-opacity="0.8"/>
<path d="M80.1443 37.3075L80.774 36.5H79.75H58.75H57.6807L58.3663 37.3206L69.2284 50.3206L69.6255 50.7959L70.0063 50.3075L80.1443 37.3075Z" fill="#50AAFF" stroke="#50AAFF"/>
</g>
<defs>
<filter id="filter0_d" x="0" y="0" width="138.5" height="60.5917" filterUnits="userSpaceOnUse" color-interpolation-filters="sRGB">
<feFlood flood-opacity="0" result="BackgroundImageFix"/>
<feColorMatrix in="SourceAlpha" type="matrix" values="0 0 0 0 0 0 0 0 0 0 0 0 0 0 0 0 0 0 127 0"/>
<feOffset dy="2"/>
<feGaussianBlur stdDeviation="3.5"/>
<feColorMatrix type="matrix" values="0 0 0 0 0 0 0 0 0 0 0 0 0 0 0 0 0 0 0.15 0"/>
<feBlend mode="normal" in2="BackgroundImageFix" result="effect1_dropShadow"/>
<feBlend mode="normal" in="SourceGraphic" in2="effect1_dropShadow" result="shape"/>
</filter>
</defs>
</svg>
