<svg width="13" height="14" viewBox="0 0 13 14" fill="none" xmlns="http://www.w3.org/2000/svg">
<path d="M5.13158 0.5C3.80421 0.5 2.63421 1.34842 2.21 2.60737C0.930526 2.85368 0 3.98263 0 5.28947C0 6.80158 1.22474 8.02632 2.73684 8.02632V13.5H10.2632V12.1316H12.3158C12.6921 12.1316 13 11.8237 13 11.4474V5.97368C13 5.59737 12.6921 5.28947 12.3158 5.28947H10.9474V3.92105C10.9474 2.40895 9.72263 1.18421 8.21053 1.18421H7.06105C6.5 0.739474 5.83632 0.5 5.13158 0.5ZM5.13158 1.86842C5.67211 1.86842 6.17842 2.12158 6.5 2.55263H8.21053C8.97 2.55263 9.57895 3.16842 9.57895 3.92105H6.84211C5.47368 3.92105 5.00842 4.69421 4.44737 5.72053C3.88632 6.74684 2.73684 6.6579 2.73684 6.6579C1.97737 6.6579 1.36842 6.04895 1.36842 5.28947C1.36842 4.53684 1.97737 3.92105 2.73684 3.92105H3.42105V3.57895C3.42105 2.63474 4.18737 1.86842 5.13158 1.86842ZM10.2632 6.6579H11.6316V10.7632H10.2632V6.6579Z" fill="black" fill-opacity="0.8"/>
</svg>
