<svg width="359" height="303" viewBox="0 0 359 303" fill="none" xmlns="http://www.w3.org/2000/svg">
<path d="M53.2353 290.246L60.2 292.192L71.0256 266.267L60.7465 263.394L53.2353 290.246Z" fill="#FFB8B8"/>
<path d="M71.8245 302.41L49.9346 296.293L52.2992 287.84L66.578 291.83C68.5966 292.394 70.3083 293.737 71.3366 295.562C72.3648 297.388 72.6255 299.547 72.0611 301.564L71.8245 302.41Z" fill="#00072D"/>
<path d="M136.317 295.698L143.549 295.697L146.988 267.816L136.314 267.816L136.317 295.698Z" fill="#FFB8B8"/>
<path d="M157.497 302.408L134.768 302.41L134.767 293.633L149.593 293.631C150.631 293.631 151.659 293.836 152.618 294.232C153.577 294.629 154.448 295.211 155.182 295.944C155.916 296.678 156.498 297.549 156.895 298.507C157.292 299.465 157.497 300.492 157.497 301.53L157.497 302.408Z" fill="#00072D"/>
<path d="M82.5747 179.943L65.9287 220.702L133.9 235.965L134.767 213.161L103.903 180.302L82.5747 179.943Z" fill="#B3B3B3"/>
<path d="M119.453 116.449C126.983 112.335 129.75 102.899 125.634 95.3729C121.518 87.8471 112.078 85.0812 104.548 89.1952C97.0187 93.3092 94.2515 102.745 98.3675 110.271C102.483 117.797 111.924 120.563 119.453 116.449Z" fill="#FFB8B8"/>
<path d="M123.103 177.688L92.3362 165.1L89.5969 147.046C88.7903 141.769 90.05 136.385 93.114 132.012C96.1781 127.64 100.811 124.617 106.048 123.571L110.117 122.754C113.461 122.085 116.916 122.242 120.185 123.211C123.454 124.18 126.436 125.932 128.874 128.315C131.262 130.595 133.047 133.431 134.071 136.569C135.095 139.707 135.325 143.049 134.742 146.298C134.282 149.082 133.152 151.712 131.45 153.963C121.785 166.596 123.026 177.098 123.039 177.202L123.103 177.688Z" fill="#E3B23C"/>
<path d="M135.63 224.769L120.211 200.259L125.068 155.674L118.359 122.329L118.716 122.338C122.618 122.435 126.333 124.027 129.093 126.786C131.852 129.546 133.444 133.26 133.539 137.16L140.065 169.835L135.63 224.769Z" fill="#00072D"/>
<path d="M135.983 290.427C135.333 290.426 134.703 290.201 134.2 289.789C133.698 289.378 133.353 288.805 133.225 288.168L126.47 254.593C125.236 248.442 122.912 242.561 119.609 237.226L100.548 206.407C100.453 206.254 100.318 206.13 100.157 206.048C99.9962 205.967 99.8159 205.932 99.6361 205.946C99.4564 205.96 99.284 206.024 99.1381 206.13C98.9921 206.236 98.8783 206.38 98.809 206.546L67.4713 281.791C67.2194 282.393 66.7667 282.888 66.1903 283.194C65.6139 283.499 64.9495 283.596 64.31 283.467L55.9385 281.761C55.2213 281.618 54.5885 281.2 54.175 280.597C53.7616 279.994 53.6003 279.253 53.7255 278.533L60.5547 238.305C61.9478 230.106 64.3216 222.103 67.6248 214.47L90.7533 161.043L124.885 172.247L127.137 196.136L142.908 234.304C143.998 236.94 144.649 239.737 144.836 242.583L147.75 286.695C147.795 287.432 147.551 288.156 147.069 288.715C146.587 289.273 145.906 289.622 145.171 289.685L136.214 290.418C136.137 290.424 136.059 290.427 135.983 290.427Z" fill="#00072D"/>
<path d="M73.7178 235.7L62.8971 225.434L83.3468 146.615C84.6442 141.66 87.0768 137.074 90.4523 133.219C93.8278 129.365 98.0538 126.348 102.796 124.406L103.198 124.243L102.105 172.213L73.7178 235.7Z" fill="#00072D"/>
<path d="M108.38 118.296C104.541 114.975 103.374 108.78 105.726 104.213C108.078 99.6459 113.702 97.1873 118.511 98.6239C123.04 99.9769 128.189 95.4637 127.637 90.6242C127.085 85.7848 121.063 82.6323 116.962 85.0365C113.856 83.7908 110.457 83.4682 107.172 84.1076C103.887 84.7471 100.857 86.3213 98.4463 88.641C93.6284 93.3586 91.8006 101.071 93.9635 107.556C96.1265 114.041 102.164 118.95 108.38 118.296Z" fill="#00072D"/>
<path d="M94.7881 244.513C94.5985 244.586 94.4011 244.637 94.1999 244.665L69.4956 248.111C68.898 248.197 68.289 248.077 67.7689 247.77C67.2488 247.464 66.8485 246.99 66.6339 246.426L45.3694 191.12C45.2317 190.762 45.1728 190.379 45.1968 189.996C45.2208 189.613 45.3271 189.24 45.5085 188.902C45.6898 188.564 45.9419 188.269 46.2477 188.037C46.5534 187.805 46.9055 187.642 47.2801 187.558L47.2802 187.558L70.512 182.376C70.6913 182.336 70.8647 182.273 71.0277 182.188L93.6239 170.379C93.7984 170.288 93.9827 170.216 94.1732 170.166L119.04 163.539C119.677 163.369 120.355 163.44 120.942 163.739C121.53 164.039 121.985 164.545 122.221 165.161L140.762 213.384C140.925 213.804 140.978 214.258 140.917 214.705C140.855 215.151 140.682 215.574 140.411 215.935L133.999 224.542C133.697 224.947 133.287 225.258 132.815 225.439L118.801 230.822C118.701 230.861 118.604 230.907 118.51 230.96L95.1586 244.337C95.0398 244.405 94.916 244.464 94.7881 244.513Z" fill="white"/>
<path d="M106.282 170.912L103.124 171.754L94.7557 173.985L94.7408 173.988L83.284 179.976L79.0323 182.198L79.0303 182.199L72.6447 185.536L72.4695 185.575L65.8359 187.054L62.6299 187.77L49.5537 190.687L70.0817 244.077L83.5567 242.197L86.8606 241.735L93.9027 240.752L93.9845 240.741L116.613 227.778L130.381 222.489L136.667 214.052L118.798 167.577L106.282 170.912Z" fill="#D5D5D5"/>
<path d="M121.742 175.234L53.6666 201.384L54.8324 204.416L122.908 178.266L121.742 175.234Z" fill="white"/>
<path d="M125.628 185.341L57.5526 211.49L58.7183 214.522L126.794 188.373L125.628 185.341Z" fill="white"/>
<path d="M133.478 205.757L65.4022 231.906L66.568 234.938L134.644 208.789L133.478 205.757Z" fill="white"/>
<path d="M106.282 170.912L126.662 223.918L123.629 225.083L103.124 171.754L106.282 170.912Z" fill="white"/>
<path d="M83.2841 179.976L79.0992 191.614L77.6481 195.651L74.2631 205.072L73.5379 207.085L72.812 209.109L71.8562 211.765L64.9957 230.849L63.2121 226.21L68.8059 210.648L70.0715 207.125L70.257 206.61L71.7537 202.444L73.642 197.191L75.0931 193.153L79.0303 182.199L79.0321 182.198L83.2841 179.976Z" fill="white"/>
<path opacity="0.1" d="M117.107 227.589L116.613 227.778L93.9844 240.741L93.9025 240.752L72.4693 185.575L72.6446 185.536L79.0304 182.199L79.0321 182.198L83.2841 179.976L94.741 173.988L94.7558 173.985L117.107 227.589Z" fill="black"/>
<path d="M94.8901 244.779C94.6803 244.859 94.4619 244.916 94.2393 244.947L69.5349 248.394C68.8736 248.488 68.1997 248.355 67.6242 248.016C67.0487 247.677 66.6057 247.152 66.3682 246.528L45.1037 191.222C44.9513 190.826 44.8862 190.402 44.9128 189.978C44.9394 189.554 45.057 189.141 45.2577 188.767C45.4583 188.393 45.7373 188.067 46.0757 187.81C46.414 187.554 46.8036 187.373 47.2181 187.28L70.4499 182.099C70.605 182.064 70.7548 182.009 70.8958 181.935L93.492 170.127C93.6851 170.026 93.8889 169.947 94.0996 169.891L118.967 163.265C119.672 163.075 120.422 163.154 121.072 163.486C121.722 163.817 122.226 164.377 122.486 165.059L141.028 213.282C141.208 213.747 141.267 214.25 141.199 214.744C141.131 215.237 140.939 215.706 140.64 216.105L134.227 224.712C133.894 225.16 133.439 225.504 132.917 225.705L118.904 231.088C118.817 231.121 118.733 231.161 118.652 231.207L95.3002 244.584C95.1687 244.659 95.0316 244.724 94.8901 244.779ZM47.2098 188.469C46.7603 188.641 46.398 188.986 46.2023 189.425C46.0067 189.865 45.9938 190.365 46.1665 190.814L67.431 246.12C67.577 246.503 67.8493 246.826 68.203 247.034C68.5568 247.243 68.9711 247.324 69.3776 247.266L94.082 243.819C94.3116 243.787 94.5329 243.712 94.7342 243.597L118.086 230.22C118.217 230.144 118.354 230.08 118.495 230.025L132.509 224.642C132.83 224.519 133.109 224.308 133.314 224.032L139.726 215.425C139.91 215.18 140.029 214.892 140.07 214.588C140.112 214.285 140.076 213.976 139.965 213.69L121.424 165.467C121.263 165.048 120.954 164.704 120.554 164.5C120.155 164.296 119.694 164.248 119.261 164.364L94.3931 170.99C94.2639 171.025 94.1387 171.074 94.0198 171.135L71.4233 182.944C71.194 183.063 70.9503 183.152 70.6982 183.209L47.4662 188.391C47.3789 188.411 47.2932 188.436 47.2098 188.469Z" fill="#D5D5D5"/>
<path d="M65.8359 187.054L86.8603 241.735L83.5567 242.197L62.6297 187.77L65.8359 187.054Z" fill="white"/>
<path d="M71.8828 209.126C72.7204 209.126 73.3993 208.447 73.3993 207.61C73.3993 206.773 72.7204 206.094 71.8828 206.094C71.0452 206.094 70.3662 206.773 70.3662 207.61C70.3662 208.447 71.0452 209.126 71.8828 209.126Z" fill="#3F3D56"/>
<path d="M125.655 210.741C126.493 210.741 127.172 210.063 127.172 209.225C127.172 208.388 126.493 207.71 125.655 207.71C124.818 207.71 124.139 208.388 124.139 209.225C124.139 210.063 124.818 210.741 125.655 210.741Z" fill="#E3B23C"/>
<path d="M126.269 181.847C127.99 186.324 125.919 201.159 125.191 205.921C125.168 206.072 125.105 206.214 125.009 206.333C124.913 206.452 124.788 206.544 124.645 206.599C124.502 206.653 124.348 206.67 124.197 206.645C124.046 206.621 123.904 206.557 123.786 206.46C120.054 203.412 108.576 193.781 106.855 189.304C106.365 188.03 106.131 186.672 106.166 185.308C106.201 183.943 106.505 182.599 107.06 181.352C107.615 180.104 108.41 178.979 109.401 178.039C110.391 177.099 111.557 176.363 112.831 175.873C114.106 175.384 115.465 175.15 116.83 175.185C118.195 175.22 119.54 175.524 120.788 176.078C122.036 176.633 123.162 177.428 124.103 178.418C125.043 179.408 125.779 180.573 126.269 181.847V181.847Z" fill="#E3B23C"/>
<path d="M116.562 191.206C119.673 191.206 122.195 188.685 122.195 185.576C122.195 182.466 119.673 179.945 116.562 179.945C113.451 179.945 110.929 182.466 110.929 185.576C110.929 188.685 113.451 191.206 116.562 191.206Z" fill="white"/>
<path d="M109.326 173.427C109.554 172.591 109.963 171.815 110.523 171.153C111.084 170.492 111.783 169.962 112.571 169.599C113.359 169.237 114.216 169.052 115.083 169.057C115.951 169.062 116.806 169.257 117.59 169.628L127.646 160.542L134.66 165.304L120.279 177.935C119.568 179.21 118.414 180.179 117.035 180.66C115.657 181.141 114.15 181.099 112.799 180.544C111.449 179.988 110.35 178.957 109.71 177.645C109.07 176.333 108.933 174.833 109.326 173.427Z" fill="#FFB8B8"/>
<path d="M125.529 176.393L117.647 165.7L135.617 154.205L122.737 135.835C121.684 134.334 121.223 132.497 121.441 130.678C121.659 128.858 122.541 127.182 123.918 125.972C125.295 124.762 127.071 124.102 128.904 124.119C130.738 124.136 132.501 124.828 133.855 126.064L149.983 140.77C151.519 142.171 152.711 143.908 153.465 145.844C154.22 147.781 154.517 149.866 154.334 151.936C154.15 154.007 153.491 156.007 152.408 157.781C151.324 159.555 149.846 161.055 148.087 162.164L125.529 176.393Z" fill="#00072D"/>
<path d="M63.7721 204.447C64.4846 203.953 65.0802 203.309 65.5167 202.56C65.9532 201.811 66.2202 200.976 66.2987 200.112C66.3772 199.249 66.2654 198.379 65.9712 197.564C65.677 196.748 65.2075 196.007 64.5957 195.393L69.8064 182.885L62.974 177.866L55.8638 195.633C54.8992 196.729 54.3703 198.14 54.3772 199.599C54.384 201.059 54.9263 202.465 55.9011 203.551C56.8759 204.638 58.2156 205.329 59.6662 205.494C61.1169 205.659 62.5778 205.287 63.7721 204.447V204.447Z" fill="#FFB8B8"/>
<path d="M67.2928 191.747L54.9697 188.879L64.1528 162.411C65.7353 157.844 68.0699 153.574 71.0603 149.776L86.0418 130.734C87.4119 128.992 89.4169 127.864 91.6174 127.597C93.818 127.33 96.0348 127.946 97.7822 129.309C99.5296 130.672 100.665 132.672 100.94 134.871C101.215 137.069 100.607 139.287 99.2494 141.039L82.6254 162.484L67.2928 191.747Z" fill="#00072D"/>
<path d="M301.602 302.715H296.478V2.56056C296.478 1.88146 296.748 1.23017 297.229 0.749974C297.709 0.269775 298.361 0 299.04 0C299.72 0 300.371 0.269775 300.852 0.749974C301.332 1.23017 301.602 1.88146 301.602 2.56056V302.715Z" fill="#F9F9F9"/>
<path d="M337.154 39.262H262.606C261.926 39.2612 261.275 38.9912 260.795 38.5112C260.315 38.0311 260.045 37.3803 260.044 36.7014V15.0789C260.045 14.4 260.315 13.7492 260.795 13.2691C261.275 12.7891 261.926 12.5191 262.606 12.5183H337.159C337.596 12.5186 338.026 12.6304 338.408 12.8431L357.687 23.5969C358.084 23.8185 358.415 24.1419 358.646 24.5339C358.877 24.9259 358.999 25.3723 359 25.8271C359.001 26.282 358.881 26.7288 358.652 27.1218C358.423 27.5148 358.093 27.8397 357.696 28.0631L338.412 38.9319C338.028 39.148 337.595 39.2617 337.154 39.262Z" fill="#E3B23C"/>
<path d="M330.351 85.9212H255.803C255.362 85.9209 254.929 85.8072 254.545 85.5911L235.26 74.7223C234.864 74.4989 234.534 74.174 234.305 73.781C234.076 73.388 233.956 72.9411 233.957 72.4863C233.958 72.0314 234.08 71.5851 234.311 71.1931C234.542 70.8011 234.873 70.4777 235.27 70.256L254.549 59.5023C254.931 59.2896 255.36 59.1778 255.797 59.1775H330.351C331.03 59.1783 331.681 59.4483 332.162 59.9283C332.642 60.4083 332.912 61.0592 332.913 61.7381V83.3606C332.912 84.0395 332.642 84.6903 332.162 85.1703C331.681 85.6504 331.03 85.9204 330.351 85.9212Z" fill="#F9F9F9"/>
<path d="M330.636 131.727H256.087C255.647 131.726 255.213 131.613 254.829 131.397L235.545 120.528C235.148 120.305 234.819 119.98 234.59 119.587C234.36 119.194 234.24 118.747 234.241 118.292C234.242 117.837 234.364 117.391 234.595 116.999C234.826 116.607 235.157 116.283 235.555 116.062L254.833 105.308C255.215 105.095 255.645 104.983 256.082 104.983H330.636C331.315 104.984 331.966 105.254 332.446 105.734C332.927 106.214 333.197 106.865 333.197 107.544V129.166C333.197 129.845 332.927 130.496 332.446 130.976C331.966 131.456 331.315 131.726 330.636 131.727Z" fill="#F9F9F9"/>
<path d="M110.5 86C103.7 90 94.5 101.5 94.5 109C93.1667 108.167 89 105.2 89 100C89 94.8 97.5 86.5 105.5 81.5C113.5 76.5 115 83 115 83C115.5 83.5 113.586 84.1848 110.5 86Z" fill="#F9F9F9"/>
<path d="M108.5 84.822C113.5 82.322 115 83 115 83C115.502 83.3346 115.828 84.0932 117 84C119.33 83.8146 122.663 82.6711 121 85C119.5 86.5 116 90 110 90.5C103.273 95.052 96.6867 99.958 95 110.5C92.5 108 92 108.5 93 104.5C94.2612 99.4552 103.5 87.3219 108.5 84.822Z" fill="black"/>
<ellipse cx="113.591" cy="84.4822" rx="1.26793" ry="1" transform="rotate(28.355 113.591 84.4822)" fill="#E3B23C"/>
<path d="M287.05 24.11H284.78V30H283.41V24.11H281.14V22.9H287.05V24.11ZM292.671 30H291.331V27.06C291.331 26.6533 291.251 26.35 291.091 26.15C290.938 25.95 290.725 25.85 290.451 25.85C290.285 25.85 290.111 25.8967 289.931 25.99C289.758 26.0833 289.598 26.2133 289.451 26.38C289.311 26.54 289.208 26.7267 289.141 26.94V30H287.801V22.7H289.141V25.73C289.335 25.3967 289.598 25.1367 289.931 24.95C290.265 24.7633 290.628 24.67 291.021 24.67C291.468 24.67 291.811 24.77 292.051 24.97C292.291 25.17 292.455 25.4267 292.541 25.74C292.628 26.0533 292.671 26.3833 292.671 26.73V30ZM293.837 24.03V22.7H295.177V24.03H293.837ZM293.837 30V24.76H295.177V30H293.837ZM298.315 30.1C297.869 30.1 297.442 30.0267 297.035 29.88C296.629 29.7333 296.279 29.5167 295.985 29.23L296.465 28.36C296.779 28.6133 297.085 28.8 297.385 28.92C297.685 29.04 297.979 29.1 298.265 29.1C298.525 29.1 298.732 29.0533 298.885 28.96C299.045 28.8667 299.125 28.7267 299.125 28.54C299.125 28.3467 299.029 28.2167 298.835 28.15C298.642 28.0767 298.372 27.9867 298.025 27.88C297.639 27.76 297.315 27.6367 297.055 27.51C296.795 27.3833 296.599 27.23 296.465 27.05C296.339 26.87 296.275 26.6367 296.275 26.35C296.275 25.8367 296.469 25.4267 296.855 25.12C297.242 24.8133 297.755 24.66 298.395 24.66C298.769 24.66 299.122 24.72 299.455 24.84C299.789 24.9533 300.092 25.14 300.365 25.4L299.825 26.25C299.312 25.85 298.815 25.65 298.335 25.65C298.122 25.65 297.932 25.69 297.765 25.77C297.605 25.85 297.525 25.99 297.525 26.19C297.525 26.3767 297.602 26.51 297.755 26.59C297.915 26.67 298.155 26.7567 298.475 26.85C298.889 26.9767 299.239 27.1 299.525 27.22C299.819 27.34 300.039 27.4933 300.185 27.68C300.339 27.8667 300.415 28.12 300.415 28.44C300.415 28.96 300.225 29.3667 299.845 29.66C299.465 29.9533 298.955 30.1 298.315 30.1ZM305.938 22.92H307.218L308.028 25.27L308.848 22.92H310.118L308.898 26.15L309.798 28.41L311.808 22.9H313.308L310.468 30H309.278L308.028 27.02L306.788 30H305.598L302.768 22.9H304.248L306.268 28.41L307.148 26.15L305.938 22.92ZM312.969 28.45C312.969 28.11 313.062 27.8133 313.249 27.56C313.442 27.3 313.709 27.1 314.049 26.96C314.389 26.82 314.779 26.75 315.219 26.75C315.439 26.75 315.662 26.77 315.889 26.81C316.115 26.8433 316.312 26.8933 316.479 26.96V26.68C316.479 26.3467 316.379 26.09 316.179 25.91C315.985 25.73 315.695 25.64 315.309 25.64C315.022 25.64 314.749 25.69 314.489 25.79C314.229 25.89 313.955 26.0367 313.669 26.23L313.239 25.35C313.585 25.1233 313.939 24.9533 314.299 24.84C314.665 24.7267 315.049 24.67 315.449 24.67C316.195 24.67 316.775 24.8567 317.189 25.23C317.609 25.6033 317.819 26.1367 317.819 26.83V28.5C317.819 28.6467 317.842 28.75 317.889 28.81C317.935 28.8633 318.019 28.8967 318.139 28.91V30C318.019 30.0267 317.909 30.0433 317.809 30.05C317.715 30.0633 317.635 30.07 317.569 30.07C317.302 30.07 317.099 30.01 316.959 29.89C316.819 29.77 316.735 29.6233 316.709 29.45L316.679 29.18C316.445 29.48 316.159 29.71 315.819 29.87C315.485 30.0233 315.142 30.1 314.789 30.1C314.435 30.1 314.122 30.03 313.849 29.89C313.575 29.7433 313.359 29.5467 313.199 29.3C313.045 29.0467 312.969 28.7633 312.969 28.45ZM316.229 28.72C316.395 28.56 316.479 28.4067 316.479 28.26V27.73C316.132 27.59 315.782 27.52 315.429 27.52C315.075 27.52 314.789 27.5967 314.569 27.75C314.349 27.8967 314.239 28.0933 314.239 28.34C314.239 28.54 314.319 28.72 314.479 28.88C314.639 29.04 314.869 29.12 315.169 29.12C315.369 29.12 315.562 29.0833 315.749 29.01C315.942 28.9367 316.102 28.84 316.229 28.72ZM318.986 31.02C319.232 31.0867 319.432 31.12 319.586 31.12C319.766 31.12 319.909 31.0433 320.016 30.89C320.129 30.7433 320.256 30.4467 320.396 30L318.326 24.76H319.716L321.126 28.63L322.366 24.76H323.646L321.446 31.04C321.326 31.4 321.109 31.6967 320.796 31.93C320.489 32.17 320.109 32.29 319.656 32.29C319.436 32.29 319.212 32.2533 318.986 32.18V31.02Z" fill="black" fill-opacity="0.46"/>
</svg>
