<svg width="110" height="62" viewBox="0 0 110 62" fill="none" xmlns="http://www.w3.org/2000/svg">
<path d="M2.24562 32.1026L0.110189 28.5688L19.8841 11.5111L70.8696 11.3503L70.8852 16.3069L52.5364 36.193L31.3056 40.5086L2.24562 32.1026Z" fill="#4C4981"/>
<path d="M79.6774 21.296L79.6425 10.2166L72.9673 10.2377L72.9783 13.7314L70.8696 11.3503L53.928 28.3991L51.1041 31.2404L47.6083 45.4144L54.0308 60.9727L86.6044 60.87L86.5039 29.0044L79.6774 21.296Z" fill="#CCCCCC"/>
<path d="M53.928 28.399L0.110229 28.5687L0.21298 61.1426L54.0307 60.9729L53.928 28.399Z" fill="#F2F2F2"/>
<path d="M46.525 38.6903L35.1949 38.726L35.2262 48.6398L46.5563 48.6041L46.525 38.6903Z" fill="#4C4981"/>
<path d="M30.591 38.3865L20.6772 38.4177L20.7487 61.0778L30.6625 61.0465L30.591 38.3865Z" fill="#CCCCCC"/>
<path d="M9.35834 41.994L9.34718 38.4536L5.09863 38.467L5.1098 42.0074L9.00404 41.9952L9.35834 41.994Z" fill="#4C4981"/>
<path d="M9.01302 44.8275L5.11877 44.8398L5.12994 48.3807L9.37849 48.3673L9.36732 44.8264L9.01302 44.8275Z" fill="#4C4981"/>
<path d="M16.4285 38.4311L12.1797 38.4445L12.1909 41.9852L16.4396 41.9718L16.4285 38.4311Z" fill="#4C4981"/>
<path d="M16.4486 44.8043L12.1998 44.8177L12.211 48.3583L16.4598 48.3449L16.4486 44.8043Z" fill="#4C4981"/>
<path d="M69.1963 42.1596L69.1852 38.6186L64.9361 38.632L64.9473 42.173L68.842 42.1607L69.1963 42.1596Z" fill="#4C4981"/>
<path d="M68.851 44.9931L64.9562 45.0054L64.9674 48.5458L69.2165 48.5324L69.2053 44.992L68.851 44.9931Z" fill="#4C4981"/>
<path d="M76.2664 38.5965L72.0176 38.6099L72.0287 42.1505L76.2775 42.1371L76.2664 38.5965Z" fill="#4C4981"/>
<path d="M76.2864 44.9696L72.0377 44.983L72.0488 48.5237L76.2976 48.5103L76.2864 44.9696Z" fill="#4C4981"/>
<path d="M99.4463 20.5355L98.4194 20.5388L98.5473 61.1037L99.5743 61.1004L99.4463 20.5355Z" fill="#4C4981"/>
<path d="M108.94 25.6752C109.05 39.8595 99.1073 51.4361 99.1073 51.4361C99.1073 51.4361 88.9856 40.0153 88.8755 25.831C88.7654 11.6466 98.7085 0.0700441 98.7085 0.0700441C98.7085 0.0700441 108.83 11.4908 108.94 25.6752Z" fill="#E3B23C"/>
</svg>
