<svg width="110" height="62" viewBox="0 0 110 62" fill="none" xmlns="http://www.w3.org/2000/svg">
<path d="M2.22435 32.0645L0.0889183 28.5307L19.8628 11.473L70.8483 11.3122L70.864 16.2688L52.5152 36.1549L31.2844 40.4705L2.22435 32.0645Z" fill="#4C4981"/>
<path d="M79.6561 21.2579L79.6212 10.1785L72.946 10.1996L72.957 13.6933L70.8483 11.3122L53.9067 28.361L51.0828 31.2023L47.587 45.3763L54.0095 60.9346L86.5831 60.8319L86.4826 28.9663L79.6561 21.2579Z" fill="#CCCCCC"/>
<path d="M53.9067 28.3609L0.0889282 28.5306L0.191679 61.1045L54.0094 60.9348L53.9067 28.3609Z" fill="#F2F2F2"/>
<path d="M46.5037 38.6522L35.1737 38.6879L35.2049 48.6017L46.535 48.566L46.5037 38.6522Z" fill="#4C4981"/>
<path d="M30.5697 38.3483L20.6559 38.3796L20.7274 61.0397L30.6412 61.0084L30.5697 38.3483Z" fill="#CCCCCC"/>
<path d="M9.33707 41.9559L9.32591 38.4155L5.07736 38.4289L5.08853 41.9693L8.98277 41.9571L9.33707 41.9559Z" fill="#4C4981"/>
<path d="M8.99168 44.7894L5.09744 44.8017L5.10861 48.3427L9.35716 48.3293L9.34599 44.7883L8.99168 44.7894Z" fill="#4C4981"/>
<path d="M16.4072 38.393L12.1584 38.4064L12.1696 41.947L16.4183 41.9336L16.4072 38.393Z" fill="#4C4981"/>
<path d="M16.4273 44.7662L12.1785 44.7796L12.1897 48.3202L16.4384 48.3068L16.4273 44.7662Z" fill="#4C4981"/>
<path d="M69.1751 42.1215L69.1639 38.5805L64.9148 38.5939L64.926 42.1349L68.8208 42.1226L69.1751 42.1215Z" fill="#4C4981"/>
<path d="M68.8297 44.955L64.9349 44.9673L64.9461 48.5077L69.1951 48.4943L69.184 44.9539L68.8297 44.955Z" fill="#4C4981"/>
<path d="M76.2451 38.5584L71.9963 38.5718L72.0074 42.1124L76.2562 42.099L76.2451 38.5584Z" fill="#4C4981"/>
<path d="M76.2652 44.9315L72.0164 44.9449L72.0276 48.4856L76.2763 48.4722L76.2652 44.9315Z" fill="#4C4981"/>
<path d="M99.4251 20.4975L98.3981 20.5007L98.5261 61.0656L99.553 61.0624L99.4251 20.4975Z" fill="#4C4981"/>
<path d="M108.919 25.6371C109.029 39.8214 99.086 51.398 99.086 51.398C99.086 51.398 88.9643 39.9772 88.8542 25.7929C88.7441 11.6085 98.6873 0.0319581 98.6873 0.0319581C98.6873 0.0319581 108.809 11.4527 108.919 25.6371Z" fill="#E3B23C"/>
</svg>
