<svg width="131" height="119" viewBox="0 0 131 119" fill="none" xmlns="http://www.w3.org/2000/svg">
<path d="M118.276 69.9945L117.067 70.095L120.461 110.011L121.67 109.911L118.276 69.9945Z" fill="#4C4981"/>
<path d="M127.437 72.8606C128.73 86.9951 119.881 99.3047 119.881 99.3047C119.881 99.3047 108.935 88.6979 107.641 74.5634C106.347 60.4289 115.196 48.1193 115.196 48.1193C115.196 48.1193 126.143 58.7261 127.437 72.8606Z" fill="#F9A826"/>
<path opacity="0.1" d="M127.437 74.8603C128.73 88.9948 119.881 101.304 119.881 101.304C119.881 101.304 108.934 90.6976 107.641 76.5631C106.347 62.4287 115.196 50.119 115.196 50.119C115.196 50.119 126.143 60.7258 127.437 74.8603Z" fill="black"/>
<path d="M14.365 113.125C15.4845 116.16 18.5614 117.846 18.5614 117.846C18.5614 117.846 19.8232 114.611 18.7037 111.576C17.5842 108.54 14.5074 106.854 14.5074 106.854C14.5074 106.854 13.2456 110.089 14.365 113.125Z" fill="#4C4981"/>
<path d="M15.0225 111.968C17.6362 114.192 18.2537 117.886 18.2537 117.886C18.2537 117.886 14.6336 117.975 12.02 115.751C9.40631 113.527 8.78882 109.833 8.78882 109.833C8.78882 109.833 12.4089 109.744 15.0225 111.968Z" fill="#E19822"/>
<path d="M14.4429 29.4395L10.6748 26.8852L28.8474 7.5348L78.8459 3.47434L80.2057 19.0937L49.7284 43.7336L14.4429 29.4395Z" fill="#4C4981"/>
<path d="M88.0862 12.6278L87.2561 3.08408L80.7457 3.61322L80.949 5.95067L78.2852 3.45816L63.9349 22.3911L58.0878 27.1306L54.7083 99.8606L70.5348 113.53L104.314 110.785L96.4565 20.4585L88.0862 12.6278Z" fill="#CCCCCC"/>
<path d="M63.9421 22.2993L10.5979 26.6308L18.541 117.858L71.8852 113.526L63.9421 22.2993Z" fill="#F2F2F2"/>
<path d="M47.4791 92.7857L37.5692 93.5912L39.5249 116.075L49.4348 115.27L47.4791 92.7857Z" fill="#CCCCCC"/>
<path d="M26.8681 100.817L26.541 97.063L22.8118 97.3655L23.1389 101.119L26.5576 100.842L26.8681 100.817Z" fill="#4C4981"/>
<path d="M26.755 103.324L23.3362 103.602L23.6633 107.356L27.3926 107.053L27.0655 103.299L26.755 103.324Z" fill="#4C4981"/>
<path d="M34.0243 96.4337L29.0481 96.8375L29.3754 100.595L34.3517 100.191L34.0243 96.4337Z" fill="#4C4981"/>
<path d="M34.5487 102.67L29.5724 103.074L29.8998 106.831L34.8761 106.427L34.5487 102.67Z" fill="#4C4981"/>
<path d="M55.5549 98.4047L55.2278 94.6508L51.4985 94.9534L51.8256 98.7072L55.2443 98.4299L55.5549 98.4047Z" fill="#4C4981"/>
<path d="M55.4416 100.912L52.0229 101.19L52.35 104.943L56.0792 104.641L55.7521 100.887L55.4416 100.912Z" fill="#4C4981"/>
<path d="M62.7112 94.0216L58.982 94.3242L59.3091 98.078L63.0383 97.7754L62.7112 94.0216Z" fill="#4C4981"/>
<path d="M63.2356 100.258L59.5063 100.561L59.8334 104.314L63.5627 104.012L63.2356 100.258Z" fill="#4C4981"/>
<path d="M79.616 26.0419L79.2889 22.2881L75.5596 22.5906L75.8867 26.3445L79.3054 26.0671L79.616 26.0419Z" fill="#4C4981"/>
<path d="M79.5026 28.5496L76.0838 28.827L76.4109 32.5808L80.1402 32.2782L79.8131 28.5244L79.5026 28.5496Z" fill="#4C4981"/>
<path d="M86.772 21.6589L81.7958 22.0627L82.1231 25.8201L87.0994 25.4162L86.772 21.6589Z" fill="#4C4981"/>
<path d="M87.2964 27.8951L82.3201 28.299L82.6475 32.0564L87.6237 31.6525L87.2964 27.8951Z" fill="#4C4981"/>
<path d="M81.2938 45.9978L80.9667 42.244L77.2374 42.5466L77.5645 46.3004L80.9832 46.023L81.2938 45.9978Z" fill="#4C4981"/>
<path d="M81.1805 48.5055L77.7618 48.7829L78.0889 52.5367L81.8181 52.2341L81.491 48.4803L81.1805 48.5055Z" fill="#4C4981"/>
<path d="M88.45 41.6148L83.4737 42.0187L83.801 45.7761L88.7773 45.3723L88.45 41.6148Z" fill="#4C4981"/>
<path d="M88.9743 47.8511L83.998 48.2549L84.3254 52.0123L89.3017 51.6085L88.9743 47.8511Z" fill="#4C4981"/>
<path d="M82.8669 64.7067L82.5398 60.953L78.8105 61.2556L79.1376 65.0093L82.5563 64.7319L82.8669 64.7067Z" fill="#4C4981"/>
<path d="M82.8621 68.4615L79.4398 68.7393L79.658 71.2455L83.3912 70.9425L83.1729 68.4363L82.8621 68.4615Z" fill="#4C4981"/>
<path d="M90.0231 60.3235L85.0468 60.7273L85.3742 64.4847L90.3504 64.0809L90.0231 60.3235Z" fill="#4C4981"/>
<path d="M90.6563 67.8071L85.676 68.2117L85.8944 70.7211L90.8748 70.3165L90.6563 67.8071Z" fill="#4C4981"/>
<path d="M84.5448 84.6624L84.2177 80.9087L80.4885 81.2112L80.8156 84.9649L84.2343 84.6876L84.5448 84.6624Z" fill="#4C4981"/>
<path d="M84.4315 87.1701L81.0128 87.4475L81.3399 91.2013L85.0692 90.8987L84.7421 87.1449L84.4315 87.1701Z" fill="#4C4981"/>
<path d="M91.701 80.2796L86.7247 80.6835L87.0521 84.4409L92.0284 84.0371L91.701 80.2796Z" fill="#4C4981"/>
<path d="M92.2254 86.5157L87.2491 86.9196L87.5764 90.677L92.5527 90.2732L92.2254 86.5157Z" fill="#4C4981"/>
<path d="M57.1344 27.9174L17.2535 31.172L18.0187 40.0041L57.8996 36.7496L57.1344 27.9174Z" fill="#4C4981"/>
<path d="M58.4978 44.1317L18.6169 47.3862L19.3821 56.2184L59.2629 52.9639L58.4978 44.1317Z" fill="#4C4981"/>
<path d="M59.9661 61.5934L20.0852 64.8478L20.8504 73.6799L60.7313 70.4254L59.9661 61.5934Z" fill="#4C4981"/>
<path d="M61.3294 77.8074L21.4485 81.0619L22.2137 89.894L62.0946 86.6395L61.3294 77.8074Z" fill="#4C4981"/>
<path d="M104.556 71.148L103.347 71.2486L106.741 111.165L107.95 111.064L104.556 71.148Z" fill="#4C4981"/>
<path d="M114.964 75.9092C116.258 90.0437 107.409 102.353 107.409 102.353C107.409 102.353 96.4622 91.7465 95.1685 77.6121C93.8748 63.4776 102.724 51.168 102.724 51.168C102.724 51.168 113.671 61.7748 114.964 75.9092Z" fill="#E3B23C"/>
</svg>
