<svg width="457" height="333" viewBox="0 0 457 333" fill="none" xmlns="http://www.w3.org/2000/svg">
<path d="M366.687 332.379C397.994 332.379 423.374 328.489 423.374 323.689C423.374 318.89 397.994 315 366.687 315C335.38 315 310 318.89 310 323.689C310 328.489 335.38 332.379 366.687 332.379Z" fill="black" fill-opacity="0.06"/>
<path d="M365.473 118.79C360.67 110.675 351.169 110.297 351.169 110.297C351.169 110.297 341.91 109.113 335.97 121.472C330.434 132.992 322.794 144.115 334.74 146.812L336.898 140.095L338.235 147.312C339.936 147.434 341.642 147.463 343.346 147.399C356.14 146.986 368.324 147.52 367.932 142.929C367.41 136.826 370.094 126.598 365.473 118.79Z" fill="#00072D"/>
<path d="M348.177 134.073C348.177 134.073 354.384 142.762 350.66 149.797C346.936 156.831 359.349 164.279 359.349 164.279L368.452 144.417C368.452 144.417 357.694 137.383 360.591 130.762L348.177 134.073Z" fill="#FBBEBE"/>
<path d="M352.315 137.797C358.257 137.797 363.073 132.98 363.073 127.038C363.073 121.097 358.257 116.28 352.315 116.28C346.374 116.28 341.557 121.097 341.557 127.038C341.557 132.98 346.374 137.797 352.315 137.797Z" fill="#FBBEBE"/>
<path d="M315.084 139.475L324.075 127.875C324.075 127.875 327.24 115.716 331.825 116.332C336.41 116.949 330.014 130.914 330.014 130.914L321.081 143.754L315.084 139.475Z" fill="#FBBEBE"/>
<path d="M360.591 293.794L363.487 309.104L369.694 310.759L368.039 292.552L360.591 293.794Z" fill="#FBBEBE"/>
<path d="M423.071 277.242L434.243 292.552L438.794 294.621L442.518 288.415L431.346 273.932L423.071 277.242Z" fill="#FBBEBE"/>
<path d="M358.108 157.658L351.206 148.572C351.206 148.572 337.833 151.038 336.592 152.279C335.351 153.521 339.902 176.279 339.902 176.279C339.902 176.279 340.73 182.486 344.454 185.796L348.178 188.279L378.797 182.072L379.948 168.448C380.368 163.485 379.746 158.49 378.122 153.782C376.499 149.074 373.91 144.756 370.521 141.107L365.194 141.835L358.108 157.658Z" fill="#E0A9E4"/>
<path d="M338.247 153.107L336.178 152.279L326.661 151.452C326.661 151.452 323.351 150.624 324.179 148.969C325.006 147.314 325.834 146.9 324.179 146.486C322.524 146.072 322.11 145.659 322.524 144.417C322.937 143.176 325.42 140.693 325.42 140.693L318.386 134.9C318.386 134.9 318.005 135.17 317.39 135.668C313.897 138.496 302.847 148.698 310.938 158.9C320.455 170.9 331.627 177.934 340.73 175.451L338.247 153.107Z" fill="#E0A9E4"/>
<path d="M347.35 186.21V192.003C347.35 192.003 343.626 199.037 344.867 205.658C346.109 212.278 346.522 215.588 346.522 215.588C346.657 221.219 347.634 226.798 349.419 232.14C352.315 240.416 342.798 294.621 354.798 295.449C366.797 296.277 373.418 297.104 377.142 292.966C380.866 288.828 370.935 217.657 370.935 217.657C370.935 217.657 404.865 288.415 411.899 285.518C418.933 282.622 436.725 276.001 434.656 272.277C432.587 268.553 380.452 185.796 380.452 185.796L378.797 182.072L347.35 186.21Z" fill="#00072D"/>
<path d="M367.211 306.207C367.211 306.207 360.591 305.794 360.591 307.863C360.591 309.931 357.281 316.966 357.281 316.966C357.281 316.966 354.798 325.241 361.418 324.414C368.039 323.586 372.176 316.138 372.176 316.138L370.521 308.276L367.211 306.207Z" fill="#EBE0F2"/>
<path d="M436.311 291.725C436.311 291.725 430.518 288.001 430.932 290.483C431.346 292.966 431.76 299.587 434.656 300.001C437.553 300.414 446.242 302.897 446.656 303.725C447.069 304.552 457 307.862 457 302.483C457 297.104 450.793 292.966 450.793 292.966L443.759 287.587C443.759 287.587 439.208 287.173 438.38 290.07C437.553 292.966 436.311 291.725 436.311 291.725Z" fill="#EBE0F2"/>
<path d="M368.091 123.271C369.149 124.597 369.68 126.268 369.581 127.962C369.481 129.655 368.758 131.253 367.551 132.445C367.755 132.315 367.951 132.175 368.14 132.024C369.564 130.887 370.478 129.231 370.68 127.42C370.883 125.609 370.358 123.792 369.221 122.368C368.084 120.945 366.428 120.031 364.617 119.828C362.806 119.625 360.989 120.15 359.565 121.287C359.376 121.438 359.196 121.599 359.024 121.769C360.454 120.856 362.171 120.504 363.845 120.781C365.519 121.058 367.032 121.945 368.091 123.271Z" fill="#00072D"/>
<path d="M363.35 118.008L353.963 113.09L340.999 115.102L338.317 126.948L344.994 126.691L346.859 122.339V126.62L349.94 126.501L351.728 119.572L352.845 126.948L363.797 126.725L363.35 118.008Z" fill="#00072D"/>
<path d="M362.788 187.168L348.311 187.56C348.311 187.56 335.958 189.963 336.651 184.977C337.344 179.991 349.395 181.735 349.395 181.735L362.586 179.723L362.788 187.168Z" fill="#FBBEBE"/>
<path d="M374.242 140.406C374.969 140.295 375.712 140.449 376.337 140.838C376.962 141.227 377.427 141.826 377.649 142.527C380.483 151.459 389.215 181.346 380.54 185.446C370.322 190.276 362.866 190.064 362.866 190.064L358.875 180.237L362.508 176.827L366.387 151.886L368.245 141.314L374.242 140.406Z" fill="#E0A9E4"/>
<path opacity="0.4" d="M371.556 157.038L369.901 173.589L355.419 179.796L371.556 176.072V157.038Z" fill="black" fill-opacity="0.22"/>
<path d="M293.454 102.396C298.119 103.632 302.154 106.564 304.772 110.618L306.125 112.714L306.193 112.801L329.938 119.749C330.373 119.876 330.741 120.169 330.962 120.565C331.184 120.961 331.241 121.428 331.122 121.866L329.278 128.625C329.218 128.845 329.115 129.051 328.975 129.231C328.835 129.411 328.661 129.562 328.462 129.675C328.264 129.787 328.045 129.86 327.818 129.887C327.592 129.915 327.362 129.898 327.142 129.836L303.392 123.198L303.392 123.198L301.006 124.1C296.614 125.761 291.796 125.924 287.301 124.566L293.454 102.396Z" fill="#00072D"/>
<path d="M318.46 121.999C318.685 121.23 317.699 120.265 316.258 119.844C314.817 119.422 313.466 119.703 313.241 120.472C313.016 121.24 314.002 122.205 315.443 122.627C316.884 123.049 318.235 122.767 318.46 121.999Z" fill="#575A89"/>
<path d="M317.247 122.708C317.797 122.708 318.244 122.261 318.244 121.711C318.244 121.16 317.797 120.714 317.247 120.714C316.696 120.714 316.25 121.16 316.25 121.711C316.25 122.261 316.696 122.708 317.247 122.708Z" fill="#E3B23C"/>
<path d="M295.439 115.199C297.419 109.093 296.786 103.417 294.025 102.521C291.263 101.626 287.42 105.85 285.44 111.957C283.46 118.063 284.093 123.739 286.854 124.635C289.616 125.53 293.459 121.306 295.439 115.199Z" fill="#E3B23C"/>
<path opacity="0.4" d="M294.701 114.983C296.609 109.099 296.09 103.616 293.579 102.423C293.731 102.442 293.88 102.475 294.024 102.521C296.786 103.417 297.419 109.093 295.439 115.199C293.459 121.306 289.616 125.53 286.854 124.635C286.754 124.602 286.656 124.563 286.561 124.517C289.277 124.863 292.825 120.768 294.701 114.983Z" fill="black"/>
<path d="M293.766 102.418L239.877 60.6153C230.348 53.1699 221.203 45.2446 212.479 36.8701C197.118 22.2271 176.264 10.5199 151.985 4.28683C92.997 -10.8567 46.2665 15.9947 25.0121 55.4217C-7.46692 115.67 -32.3577 213.438 111.654 161.396C143.149 150.015 175.029 148.805 199.202 142.81L286.732 124.762L293.766 102.418Z" fill="#E3B23C"/>
<path d="M131.981 32.0746C133.58 32.0746 134.877 30.7778 134.877 29.1781C134.877 27.5784 133.58 26.2816 131.981 26.2816C130.381 26.2816 129.084 27.5784 129.084 29.1781C129.084 30.7778 130.381 32.0746 131.981 32.0746Z" fill="#F2F2F2"/>
<path d="M188.246 35.8732H187.492V35.1193H187.345V35.8732H186.591V36.0205H187.345V36.7744H187.492V36.0205H188.246V35.8732Z" fill="#F2F2F2"/>
<path d="M263.966 98.7684H263.213V98.0145H263.065V98.7684H262.311V98.9157H263.065V99.6697H263.213V98.9157H263.966V98.7684Z" fill="#F2F2F2"/>
<path d="M258.587 118.216H257.834V117.462H257.686V118.216H256.932V118.364H257.686V119.118H257.834V118.364H258.587V118.216Z" fill="#F2F2F2"/>
<path d="M27.288 134.768H26.5341V134.014H26.3868V134.768H25.6329V134.915H26.3868V135.669H26.5341V134.915H27.288V134.768Z" fill="#F2F2F2"/>
<path d="M60.3898 44.5626H59.6359V43.8087H59.4886V44.5626H58.7347V44.7099H59.4886V45.4639H59.6359V44.7099H60.3898V44.5626Z" fill="#F2F2F2"/>
<path d="M189.073 121.527H188.32V120.773H188.172V121.527H187.418V121.674H188.172V122.428H188.32V121.674H189.073V121.527Z" fill="#F2F2F2"/>
<path d="M110.043 18.0803H109.289V17.3264H109.141V18.0803H108.388V18.2276H109.141V18.9816H109.289V18.2276H110.043V18.0803Z" fill="#F2F2F2"/>
<path d="M110.332 77.6564L109.393 77.8012C109.687 79.6798 109.919 81.5998 110.088 83.499L111.036 83.4163C110.866 81.4922 110.63 79.5557 110.332 77.6564Z" fill="#E6E6E6"/>
<path d="M107.763 66.3434L106.853 66.6206C107.403 68.4413 107.895 70.3074 108.313 72.1653L109.244 71.9543C108.818 70.0757 108.317 68.1889 107.763 66.3434Z" fill="#E6E6E6"/>
<path d="M103.662 55.494L102.798 55.8913C103.592 57.625 104.337 59.4043 105.011 61.1836L105.901 60.8484C105.218 59.0484 104.469 57.2443 103.662 55.494Z" fill="#E6E6E6"/>
<path d="M98.1179 45.3231L97.3152 45.8321C98.3372 47.4375 99.3179 49.101 100.228 50.7685L101.064 50.3134C100.145 48.6251 99.1523 46.9451 98.1179 45.3231Z" fill="#E6E6E6"/>
<path d="M91.2245 36.0006L90.5004 36.6171C91.7334 38.0654 92.9334 39.5798 94.0671 41.1109L94.8285 40.544C93.6864 38.9964 92.474 37.4654 91.2245 36.0006Z" fill="#E6E6E6"/>
<path d="M83.1227 27.7001L82.4896 28.4076C83.913 29.678 85.3074 31.0145 86.6356 32.3758L87.3184 31.7097C85.9736 30.3317 84.5626 28.9828 83.1227 27.7001Z" fill="#E6E6E6"/>
<path d="M73.9701 20.5747L73.4363 21.3609C75.0169 22.4243 76.581 23.5581 78.083 24.7291L78.6705 23.9801C77.1478 22.7967 75.5672 21.6506 73.9701 20.5747Z" fill="#E6E6E6"/>
<path d="M65.6407 15.6259V16.7017C66.6297 17.2189 67.6103 17.761 68.5703 18.3155L69.0461 17.492C67.9289 16.8465 66.7938 16.2244 65.6407 15.6259Z" fill="#E6E6E6"/>
<path d="M110.396 89.3688L111.348 89.3516C111.365 90.312 111.366 91.2775 111.352 92.2216L110.4 92.2067C110.415 91.2734 110.414 90.3186 110.396 89.3688Z" fill="#E6E6E6"/>
<path d="M54.473 159.172L53.5337 159.317C53.8275 161.195 54.0592 163.115 54.2288 165.015L55.1764 164.932C55.0067 163.008 54.7709 161.071 54.473 159.172Z" fill="#E6E6E6"/>
<path d="M51.9035 147.859L50.9932 148.136C51.5435 149.957 52.0359 151.823 52.4538 153.681L53.3848 153.47C52.9586 151.591 52.458 149.705 51.9035 147.859Z" fill="#E6E6E6"/>
<path d="M47.803 137.01L46.9382 137.407C47.7327 139.141 48.4775 140.92 49.1519 142.699L50.0415 142.364C49.3588 140.564 48.6099 138.76 47.803 137.01Z" fill="#E6E6E6"/>
<path d="M42.2584 126.839L41.4557 127.348C42.4777 128.953 43.4584 130.617 44.3687 132.284L45.2045 131.829C44.2859 130.141 43.2928 128.461 42.2584 126.839Z" fill="#E6E6E6"/>
<path d="M35.365 117.516L34.6409 118.133C35.8739 119.581 37.0739 121.095 38.2076 122.626L38.9689 122.06C37.8269 120.512 36.6145 118.981 35.365 117.516Z" fill="#E6E6E6"/>
<path d="M27.2632 109.216L26.6301 109.923C28.0535 111.194 29.4479 112.53 30.7761 113.892L31.4589 113.225C30.1141 111.847 28.7031 110.499 27.2632 109.216Z" fill="#E6E6E6"/>
<path d="M18.1106 102.09L17.5768 102.877C19.1574 103.94 20.7215 105.074 22.2235 106.245L22.811 105.496C21.2883 104.312 19.7077 103.166 18.1106 102.09Z" fill="#E6E6E6"/>
<path d="M9.78125 97.1415V98.2173C10.7702 98.7346 11.7508 99.2766 12.7108 99.8311L13.1866 99.0077C12.0694 98.3621 10.9343 97.7401 9.78125 97.1415Z" fill="#E6E6E6"/>
<path d="M54.5371 170.884L55.4882 170.867C55.5057 171.828 55.507 172.793 55.4921 173.737L54.5411 173.722C54.5555 172.789 54.5543 171.834 54.5371 170.884Z" fill="#E6E6E6"/>
<path d="M245.636 118.207L244.697 118.352C244.991 120.231 245.223 122.151 245.392 124.05L246.34 123.967C246.17 122.043 245.934 120.107 245.636 118.207Z" fill="#E6E6E6"/>
<path d="M243.067 106.894L242.157 107.172C242.707 108.992 243.199 110.858 243.617 112.716L244.548 112.505C244.122 110.627 243.621 108.74 243.067 106.894Z" fill="#E6E6E6"/>
<path d="M238.966 96.0449L238.102 96.4422C238.896 98.1759 239.641 99.9552 240.315 101.734L241.205 101.399C240.522 99.5993 239.773 97.7952 238.966 96.0449Z" fill="#E6E6E6"/>
<path d="M233.422 85.8741L232.619 86.3831C233.641 87.9886 234.622 89.652 235.532 91.3195L236.368 90.8644C235.449 89.1762 234.456 87.4962 233.422 85.8741Z" fill="#E6E6E6"/>
<path d="M226.528 76.5515L225.804 77.168C227.037 78.6163 228.237 80.1308 229.371 81.6618L230.132 81.0949C228.99 79.5473 227.778 78.0163 226.528 76.5515Z" fill="#E6E6E6"/>
<path d="M218.427 68.251L217.794 68.9585C219.217 70.2289 220.611 71.5654 221.94 72.9267L222.622 72.2605C221.278 70.8826 219.867 69.5337 218.427 68.251Z" fill="#E6E6E6"/>
<path d="M209.274 61.1256L208.74 61.9118C210.321 62.9752 211.885 64.109 213.387 65.28L213.974 64.531C212.452 63.3476 210.871 62.2015 209.274 61.1256Z" fill="#E6E6E6"/>
<path d="M200.945 56.1768V57.2526C201.934 57.7698 202.914 58.3119 203.874 58.8664L204.35 58.0429C203.233 57.3974 202.098 56.7754 200.945 56.1768Z" fill="#E6E6E6"/>
<path d="M245.701 129.92L246.652 129.902C246.669 130.863 246.67 131.828 246.656 132.773L245.705 132.758C245.719 131.824 245.718 130.87 245.701 129.92Z" fill="#E6E6E6"/>
<path d="M61.7743 82.7136H61.073V82.0118H60.936V82.7136H60.2343V82.8502H60.936V83.5519H61.073V82.8502H61.7743V82.7136Z" fill="#F2F2F2"/>
<path d="M53.6887 125.067H52.9874V124.366H52.8504V125.067H52.1487V125.204H52.8504V125.906H52.9874V125.204H53.6887V125.067Z" fill="#F2F2F2"/>
<path d="M29.9643 162.187H29.2625V161.485H29.1255V162.187H28.4242V162.324H29.1255V163.026H29.2625V162.324H29.9643V162.187Z" fill="#F2F2F2"/>
<path d="M95.9618 115.108C89.1786 105.025 86.2334 92.8445 87.6602 80.776C89.087 68.7075 94.7914 57.5499 103.739 49.3266C112.686 41.1032 124.284 36.3587 136.43 35.9533C148.575 35.548 160.464 39.5087 169.94 47.1171C179.415 54.7256 185.851 65.478 188.079 77.4245C190.307 89.371 188.181 101.721 182.085 112.234C175.989 122.747 166.328 130.727 154.853 134.728C143.378 138.728 130.85 138.484 119.539 134.039C118.806 136.656 117.435 139.051 115.55 141.009C113.664 142.966 111.322 144.426 108.734 145.256C106.146 146.087 103.393 146.263 100.72 145.768C98.0477 145.274 95.5394 144.124 93.42 142.422C91.3007 140.721 89.6363 138.52 88.576 136.017C87.5157 133.514 87.0926 130.788 87.3444 128.081C87.5962 125.375 88.5152 122.773 90.0191 120.509C91.523 118.245 93.5648 116.389 95.9618 115.108Z" fill="#00072D"/>
<path d="M137.84 57.6969C149.489 57.6969 157.504 64.1586 157.504 73.4473C157.504 79.5984 154.522 83.8544 148.775 87.2406C143.369 90.3782 141.536 92.6771 141.536 96.6535C141.536 96.9758 141.473 97.295 141.35 97.5927C141.226 97.8905 141.045 98.161 140.818 98.3889C140.59 98.6168 140.319 98.7976 140.021 98.9209C139.724 99.0443 139.405 99.1078 139.082 99.1078H133.127C132.491 99.1078 131.88 98.8608 131.422 98.4189C130.964 97.9771 130.696 97.3748 130.674 96.7391L130.664 96.4361C130.136 90.0365 132.372 86.0601 137.995 82.7671C143.245 79.6294 145.451 77.6412 145.451 73.7891C145.451 69.9369 141.723 67.1099 137.094 67.1099C133.576 67.1099 130.792 68.8224 129.515 71.6183C129.066 72.5648 128.355 73.3629 127.467 73.9183C126.579 74.4736 125.55 74.763 124.503 74.7521C120.468 74.7521 117.802 70.4609 119.689 66.8941C122.675 61.2519 128.973 57.6969 137.84 57.6969ZM129.67 110.944C129.67 107.371 132.652 104.544 136.317 104.544C140.014 104.544 142.996 107.34 142.996 110.944C142.996 114.547 140.014 117.343 136.317 117.343C132.621 117.343 129.67 114.548 129.67 110.944Z" fill="#E3B23C"/>
<path d="M342.833 116.013C348.958 114.324 360.765 115.453 365.1 119.658C365.366 118.42 365.987 114.348 362.981 111.432C359.975 108.517 350.411 108.777 343.035 110.599C335.659 112.42 338.575 116.932 338.575 116.932C338.584 117.501 340.053 116.779 342.833 116.013Z" fill="#F9F9F9"/>
<path d="M343.273 114.196C339.024 115.685 338.575 116.932 338.575 116.932C337.5 118 336.5 119.5 339 119.5C347 120 351.5 117.5 353 116.932C354.5 116.364 358.647 115.853 365.687 120.788C365.644 117.941 366.213 117.933 363.34 116.268C359.716 114.169 347.522 112.707 343.273 114.196Z" fill="black"/>
<ellipse rx="1.02112" ry="0.805346" transform="matrix(-0.271736 0.962372 0.962372 0.271736 345.052 115.202)" fill="#E3B23C"/>
</svg>
