<svg width="14" height="14" viewBox="0 0 14 14" fill="none" xmlns="http://www.w3.org/2000/svg">
<path d="M7.92652 0.5L7.24331 1.18321L8.25548 2.19538C8.39465 2.35353 8.46423 2.53698 8.46423 2.74574C8.46423 2.9545 8.39465 3.15061 8.25548 3.28978L6.00973 5.57348L6.64234 6.25669L8.93869 3.97299C9.27397 3.59976 9.43844 3.18856 9.43844 2.74574C9.43844 2.30292 9.27397 1.8854 8.93869 1.51217L7.92652 0.5ZM5.40876 1.77786L4.72555 2.46107L5.11144 2.81533C5.25061 2.9545 5.32019 3.14428 5.32019 3.37835C5.32019 3.61241 5.25061 3.80219 5.11144 3.94136L4.72555 4.29562L5.40876 4.97883L5.76302 4.59294C6.0983 4.21971 6.2691 3.81484 6.2691 3.37835C6.2691 2.92287 6.0983 2.51168 5.76302 2.13212L5.40876 1.77786ZM12.0195 2.7837C11.583 2.7837 11.1781 2.9545 10.8049 3.28978L7.24331 6.85766L7.92652 7.49027L11.4564 3.97299C11.6146 3.81484 11.8044 3.7326 12.0195 3.7326C12.2345 3.7326 12.4243 3.81484 12.5825 3.97299L12.9684 4.35888L13.62 3.67567L13.2657 3.28978C12.8925 2.9545 12.4749 2.7837 12.0195 2.7837ZM3.16302 4.64355L0 13.5L8.85645 10.337L3.16302 4.64355ZM10.7543 6.57932C10.3114 6.57932 9.90657 6.75012 9.52701 7.0854L8.52117 8.09124L9.20438 8.77445L10.2102 7.76861C10.3684 7.61046 10.5455 7.52822 10.7543 7.52822C10.963 7.52822 11.1528 7.61046 11.3109 7.76861L12.3358 8.77445L13 8.12287L11.9878 7.0854C11.6146 6.75012 11.1971 6.57932 10.7543 6.57932Z" fill="black" fill-opacity="0.8"/>
</svg>
