<svg width="146" height="139" viewBox="0 0 146 139" fill="none" xmlns="http://www.w3.org/2000/svg">
<path d="M39.1404 102.843L32.0342 101.451L27.2772 125.73L34.3834 127.123L39.1404 102.843Z" fill="#795548"/>
<path d="M39.5359 83.17L1.80019 105.898L65.9046 118.458L39.5359 83.17Z" fill="#626696"/>
<path d="M41.7145 71.6582L8.5009 93.6682L64.1666 104.575L41.7145 71.6582Z" fill="#626696"/>
<path d="M43.5287 61.6142L17.5445 81.2492L60.1821 89.603L43.5287 61.6142Z" fill="#626696"/>
<path d="M45.4357 51.8808L25.2611 70.1114L57.2391 76.3767L45.4357 51.8808Z" fill="#626696"/>
<path d="M47.4829 42.2168L32.7148 59.1546L54.7673 63.4753L47.4829 42.2168Z" fill="#626696"/>
<path d="M95.0439 98.574L84.0701 97.8705L81.6666 135.364L92.6404 136.068L95.0439 98.574Z" fill="#795548"/>
<path d="M91.7828 68.8718L39.4148 110.495L138.408 116.841L91.7828 68.8718Z" fill="#4C4981"/>
<path d="M92.8066 51.11L47.1073 90.7645L133.069 96.275L92.8066 51.11Z" fill="#4C4981"/>
<path d="M93.5694 35.6297L58.2908 70.2907L124.134 74.5114L93.5694 35.6297Z" fill="#4C4981"/>
<path d="M94.5328 20.599L67.7272 52.0063L117.109 55.1718L94.5328 20.599Z" fill="#4C4981"/>
<path d="M95.721 5.64528L76.8032 34.0459L110.858 36.2289L95.721 5.64528Z" fill="#4C4981"/>
</svg>
