<svg width="48" height="93" viewBox="0 0 48 93" fill="none" xmlns="http://www.w3.org/2000/svg">
<path d="M31.0686 90.5191L29.5733 90.695L19.2602 3.05253C19.2369 2.85424 19.2933 2.6548 19.417 2.49809C19.5407 2.34137 19.7216 2.24023 19.9199 2.21689C20.1182 2.19356 20.3176 2.24995 20.4744 2.37367C20.6311 2.49738 20.7322 2.67828 20.7555 2.87657L31.0686 90.5191Z" fill="#4C4981"/>
<path d="M32.3925 12.3721L10.6355 14.9323C10.4373 14.9554 10.238 14.8989 10.0813 14.7752C9.92465 14.6516 9.82345 14.4708 9.7999 14.2726L9.05697 7.95903C9.03387 7.76078 9.09034 7.56146 9.21402 7.4048C9.33769 7.24814 9.51846 7.14693 9.71666 7.12339L31.4752 4.56302C31.6027 4.5481 31.732 4.56598 31.8507 4.61498L37.8467 7.0929C37.9703 7.14397 38.078 7.22703 38.1589 7.33356C38.2397 7.44009 38.2907 7.56623 38.3066 7.699C38.3225 7.83178 38.3028 7.9664 38.2495 8.08901C38.1961 8.21163 38.111 8.31782 38.003 8.39666L32.7484 12.2325C32.6437 12.3088 32.5211 12.3569 32.3925 12.3721Z" fill="#E19822"/>
<path d="M32.0102 26.2298L10.2533 28.79C10.1246 28.805 9.99428 28.7867 9.87476 28.7368L3.87317 26.2255C3.7498 26.1739 3.64241 26.0903 3.56205 25.9835C3.48168 25.8766 3.43123 25.7502 3.4159 25.6174C3.40056 25.4845 3.4209 25.35 3.4748 25.2276C3.5287 25.1052 3.61423 24.9994 3.72259 24.9211L8.97962 21.119C9.08371 21.0438 9.20528 20.9964 9.3328 20.9813L31.0913 18.4209C31.2896 18.3978 31.4889 18.4543 31.6456 18.5779C31.8022 18.7016 31.9034 18.8824 31.927 19.0806L32.6699 25.3942C32.693 25.5924 32.6365 25.7917 32.5129 25.9484C32.3892 26.105 32.2084 26.2062 32.0102 26.2298Z" fill="#4C4981"/>
<path d="M33.6671 39.5948L11.9101 42.155C11.7815 42.1701 11.6511 42.1518 11.5316 42.1019L5.53003 39.5905C5.40666 39.5389 5.29927 39.4554 5.21891 39.3485C5.13854 39.2416 5.08809 39.1153 5.07276 38.9824C5.05742 38.8496 5.07776 38.715 5.13166 38.5927C5.18556 38.4703 5.27109 38.3645 5.37945 38.2861L10.6365 34.484C10.7406 34.4088 10.8621 34.3614 10.9897 34.3463L32.7482 31.7859C32.9464 31.7628 33.1458 31.8193 33.3024 31.943C33.4591 32.0667 33.5603 32.2474 33.5838 32.4456L34.3268 38.7592C34.3499 38.9575 34.2934 39.1568 34.1697 39.3134C34.046 39.4701 33.8653 39.5713 33.6671 39.5948Z" fill="#4C4981"/>
<path d="M15.9018 12.2659C15.5916 12.2997 15.3028 12.2708 15.0353 12.1792C14.7718 12.0872 14.5375 11.9498 14.3325 11.7669C14.131 11.5796 13.9667 11.3642 13.8396 11.1205C13.712 10.8729 13.6335 10.6138 13.6041 10.3434C13.5733 10.0611 13.5958 9.78707 13.6714 9.52132C13.7466 9.25158 13.8669 9.00712 14.0321 8.78794C14.1969 8.56477 14.3983 8.38189 14.6362 8.23928C14.8777 8.09225 15.1496 8.00228 15.4518 7.96936C15.758 7.936 16.0431 7.96731 16.307 8.06328C16.5749 8.15883 16.8096 8.30024 17.0111 8.48752C17.2165 8.67437 17.3811 8.89183 17.5047 9.1399C17.6318 9.38356 17.7099 9.63861 17.7389 9.90503C17.7692 10.1834 17.7468 10.4574 17.6715 10.7272C17.5959 10.9929 17.4757 11.2374 17.3109 11.4605C17.1496 11.6793 16.948 11.8602 16.7061 12.0032C16.4681 12.1458 16.2 12.2334 15.9018 12.2659ZM14.4391 10.2525C14.466 10.499 14.5388 10.7244 14.6577 10.9288C14.7805 11.1327 14.9407 11.2923 15.1383 11.4075C15.34 11.5224 15.57 11.5657 15.8285 11.5375C16.0949 11.5085 16.312 11.4145 16.4797 11.2554C16.6475 11.0962 16.7672 10.9021 16.8388 10.673C16.9104 10.4439 16.9336 10.2141 16.9085 9.98343C16.8816 9.73689 16.8068 9.51167 16.684 9.30777C16.5612 9.10387 16.3992 8.94649 16.198 8.83563C16.0004 8.72036 15.7743 8.67659 15.5198 8.70431C15.2534 8.73334 15.0363 8.82741 14.8685 8.98651C14.7008 9.14562 14.5811 9.33972 14.5095 9.56882C14.4374 9.79395 14.414 10.0218 14.4391 10.2525ZM18.365 10.7844L18.1518 8.82797L18.9511 8.74089L19.1454 10.5243C19.1978 11.0055 19.397 11.2272 19.743 11.1895C19.898 11.1726 20.0422 11.1107 20.1754 11.0036C20.3121 10.8921 20.4158 10.736 20.4865 10.5352L20.2753 8.59662L21.0745 8.50954L21.3176 10.7403C21.3271 10.8278 21.3477 10.8879 21.3795 10.9207C21.4108 10.9495 21.4626 10.9639 21.5351 10.9641L21.6059 11.6143C21.5281 11.6388 21.4616 11.6561 21.4064 11.6662C21.3551 11.6758 21.3076 11.683 21.2639 11.6877C21.1207 11.7033 20.9999 11.6843 20.9016 11.6306C20.8067 11.5726 20.7451 11.4867 20.7166 11.3732L20.6714 11.1246C20.5556 11.3545 20.3942 11.535 20.1872 11.6662C19.9802 11.7974 19.7455 11.8773 19.483 11.9059C19.1609 11.941 18.9051 11.8642 18.7156 11.6757C18.5256 11.4831 18.4087 11.186 18.365 10.7844ZM21.729 7.19493L22.5283 7.10785L22.8935 10.46C22.9095 10.6071 22.944 10.702 22.9969 10.7445C23.0498 10.787 23.118 10.8037 23.2015 10.7946C23.2651 10.7877 23.3299 10.7726 23.3958 10.7493C23.4616 10.726 23.5191 10.6997 23.5682 10.6702L23.7419 11.2669C23.6401 11.3303 23.5192 11.3837 23.3791 11.4271C23.239 11.4705 23.1112 11.4985 22.9959 11.5111C22.7454 11.5384 22.5434 11.494 22.3899 11.378C22.24 11.2575 22.1516 11.074 22.1247 10.8274L21.729 7.19493ZM23.9452 10.1764L23.7321 8.22001L24.5314 8.13293L24.7257 9.91637C24.7781 10.3975 24.9773 10.6193 25.3232 10.5816C25.4783 10.5647 25.6224 10.5027 25.7556 10.3956C25.8924 10.2842 25.9961 10.128 26.0667 9.92719L25.8555 7.98866L26.6548 7.90158L26.8978 10.1324C26.9074 10.2199 26.928 10.28 26.9597 10.3127C26.991 10.3415 27.0429 10.356 27.1154 10.3561L27.1862 11.0063C27.1084 11.0309 27.0419 11.0482 26.9866 11.0582C26.9354 11.0678 26.8879 11.075 26.8441 11.0798C26.701 11.0954 26.5802 11.0763 26.4818 11.0227C26.387 10.9646 26.3253 10.8788 26.2968 10.7652L26.2517 10.5166C26.1359 10.7465 25.9745 10.9271 25.7675 11.0583C25.5605 11.1894 25.3257 11.2693 25.0633 11.2979C24.7412 11.333 24.4854 11.2563 24.2958 11.0677C24.1059 10.8751 23.989 10.5781 23.9452 10.1764Z" fill="white"/>
</svg>
