<svg width="231" height="122" viewBox="0 0 231 122" fill="none" xmlns="http://www.w3.org/2000/svg">
<g clip-path="url(#clip0)">
<path d="M22.1564 49.1342H29.1382V77.3869H22.1564V49.1342Z" fill="#CCCCCC"/>
<path d="M17.5458 72.072L34.5266 48.4559L68.612 48.8202L89.2889 72.364L88.871 72.678H89.0204V121.649H17.5914V72.678L17.5458 72.072Z" fill="#CCCCCC"/>
<path d="M34.5088 48.5063L55.7225 77.5812V121.649H17.5913V72.0501L34.5088 48.5063Z" fill="#F2F2F2"/>
<path d="M32.6291 97.2792H40.4164V105.326H32.6291V97.2792Z" fill="white"/>
<path d="M32.6291 83.3514H40.4164V91.2704H32.6291V83.3514Z" fill="white"/>
<path d="M32.6291 97.2792H40.4164V105.326H32.6291V97.2792Z" fill="#BDBDBD"/>
<path d="M32.6291 83.3514H40.4164V91.2704H32.6291V83.3514Z" fill="#BDBDBD"/>
<path d="M67.2367 95.144H75.024V103.191H67.2367V95.144Z" fill="#BDBDBD"/>
<path d="M67.2367 81.2162H75.024V89.1352H67.2367V81.2162Z" fill="#BDBDBD"/>
<path d="M77.2523 49.1342H84.2341V77.3869H77.2523V49.1342Z" fill="#CCCCCC"/>
<path d="M72.6416 72.072L89.6224 48.4559L123.708 48.8202L144.385 72.364L143.967 72.678H144.116V121.649H72.6872V72.678L72.6416 72.072Z" fill="#CCCCCC"/>
<path d="M89.6047 48.5063L110.818 77.5812V121.649H72.6872V72.0501L89.6047 48.5063Z" fill="#F2F2F2"/>
<path d="M87.725 97.2792H95.5123V105.326H87.725V97.2792Z" fill="white"/>
<path d="M87.725 83.3514H95.5123V91.2704H87.725V83.3514Z" fill="white"/>
<path d="M87.725 97.2792H95.5123V105.326H87.725V97.2792Z" fill="#BDBDBD"/>
<path d="M87.725 83.3514H95.5123V91.2704H87.725V83.3514Z" fill="#BDBDBD"/>
<path d="M122.332 95.144H130.12V103.191H122.332V95.144Z" fill="#BDBDBD"/>
<path d="M122.332 81.2162H130.12V89.1352H122.332V81.2162Z" fill="#BDBDBD"/>
<path d="M133.667 24.7514H142.996V62.5039H133.667V24.7514Z" fill="#CCCCCC"/>
<path d="M127.506 55.4018L150.196 23.8453L195.743 24.3319L223.372 55.7924L222.814 56.2118H223.013V121.65H127.567V56.2118L127.506 55.4018Z" fill="#CCCCCC"/>
<path d="M150.173 23.9124L178.52 62.7637V121.65H127.567V55.3729L150.173 23.9124Z" fill="#F2F2F2"/>
<path d="M147.661 89.0848H158.067V99.837H147.661V89.0848Z" fill="white"/>
<path d="M147.661 70.4739H158.067V81.0556H147.661V70.4739Z" fill="white"/>
<path d="M147.661 89.0848H158.067V99.837H147.661V89.0848Z" fill="#BDBDBD"/>
<path d="M147.661 70.4739H158.067V81.0556H147.661V70.4739Z" fill="#BDBDBD"/>
<path d="M193.905 86.2318H204.311V96.9839H193.905V86.2318Z" fill="#BDBDBD"/>
<path d="M193.905 67.6208H204.311V78.2025H193.905V67.6208Z" fill="#BDBDBD"/>
<path d="M94.5095 27.4592L92.3784 25.4667C94.0339 25.2532 94.7142 26.3087 94.9925 27.1441C96.2859 26.5163 97.6939 27.3391 97.6939 27.3391L93.43 29.1487C93.6451 28.477 94.0196 27.891 94.5095 27.4592Z" fill="white"/>
<path d="M146.596 9.86861L144.465 7.87605C146.12 7.66253 146.801 8.71804 147.079 9.55348C148.372 8.92563 149.78 9.74846 149.78 9.74846L145.516 11.558C145.731 10.8864 146.106 10.3003 146.596 9.86861Z" fill="white"/>
<path d="M61.6371 2.02046L59.5061 0.0279047C61.1616 -0.185619 61.8418 0.869891 62.1202 1.70534C63.4136 1.07749 64.8216 1.90031 64.8216 1.90031L60.5577 3.7099C60.7728 3.03824 61.1473 2.45219 61.6371 2.02046Z" fill="white"/>
</g>
<defs>
<clipPath id="clip0">
<rect width="231" height="122" fill="white" transform="matrix(-1 0 0 1 231 0)"/>
</clipPath>
</defs>
</svg>
