<svg preserveAspectRatio="none" id="visual" viewBox="0 0 900 200" width="900" height="200" xmlns="http://www.w3.org/2000/svg" xmlns:xlink="http://www.w3.org/1999/xlink" version="1.1"><path d="M0 179L13.7 177.3C27.3 175.7 54.7 172.3 82 167.8C109.3 163.3 136.7 157.7 163.8 152C191 146.3 218 140.7 245.2 143C272.3 145.3 299.7 155.7 327 150C354.3 144.3 381.7 122.7 409 114.3C436.3 106 463.7 111 491 118.2C518.3 125.3 545.7 134.7 573 133.7C600.3 132.7 627.7 121.3 654.8 123.7C682 126 709 142 736.2 148.7C763.3 155.3 790.7 152.7 818 156.2C845.3 159.7 872.7 169.3 886.3 174.2L900 179L900 201L886.3 201C872.7 201 845.3 201 818 201C790.7 201 763.3 201 736.2 201C709 201 682 201 654.8 201C627.7 201 600.3 201 573 201C545.7 201 518.3 201 491 201C463.7 201 436.3 201 409 201C381.7 201 354.3 201 327 201C299.7 201 272.3 201 245.2 201C218 201 191 201 163.8 201C136.7 201 109.3 201 82 201C54.7 201 27.3 201 13.7 201L0 201Z" fill="hsl(42deg 75% 56%)" stroke-linecap="round" stroke-linejoin="miter"></path></svg>