<?xml version="1.0" standalone="no"?>
<svg preserveAspectRatio="none" xmlns:xlink="http://www.w3.org/1999/xlink" id="wave" style="transform:rotate(0deg); transition: 0.3s" viewBox="0 0 1440 100" version="1.1" xmlns="http://www.w3.org/2000/svg"><defs><linearGradient id="sw-gradient-0" x1="0" x2="0" y1="1" y2="0"><stop stop-color="black" offset="0%"/><stop stop-color="black" offset="100%"/></linearGradient></defs><path style="transform:translate(0, 0px); opacity:.05" fill="url(#sw-gradient-0)" d="M0,70L12,68.3C24,67,48,63,72,60C96,57,120,53,144,43.3C168,33,192,17,216,13.3C240,10,264,20,288,23.3C312,27,336,23,360,23.3C384,23,408,27,432,33.3C456,40,480,50,504,48.3C528,47,552,33,576,25C600,17,624,13,648,18.3C672,23,696,37,720,46.7C744,57,768,63,792,58.3C816,53,840,37,864,31.7C888,27,912,33,936,38.3C960,43,984,47,1008,55C1032,63,1056,77,1080,75C1104,73,1128,57,1152,53.3C1176,50,1200,60,1224,53.3C1248,47,1272,23,1296,26.7C1320,30,1344,60,1368,71.7C1392,83,1416,77,1440,70C1464,63,1488,57,1512,50C1536,43,1560,37,1584,30C1608,23,1632,17,1656,15C1680,13,1704,17,1716,18.3L1728,20L1728,100L1716,100C1704,100,1680,100,1656,100C1632,100,1608,100,1584,100C1560,100,1536,100,1512,100C1488,100,1464,100,1440,100C1416,100,1392,100,1368,100C1344,100,1320,100,1296,100C1272,100,1248,100,1224,100C1200,100,1176,100,1152,100C1128,100,1104,100,1080,100C1056,100,1032,100,1008,100C984,100,960,100,936,100C912,100,888,100,864,100C840,100,816,100,792,100C768,100,744,100,720,100C696,100,672,100,648,100C624,100,600,100,576,100C552,100,528,100,504,100C480,100,456,100,432,100C408,100,384,100,360,100C336,100,312,100,288,100C264,100,240,100,216,100C192,100,168,100,144,100C120,100,96,100,72,100C48,100,24,100,12,100L0,100Z"/></svg>